<?xml version="1.0" encoding="UTF-8" standalone="no"?>
<!-- Created with Inkscape (http://www.inkscape.org/) -->

<svg
   xmlns:dc="http://purl.org/dc/elements/1.1/"
   xmlns:cc="http://creativecommons.org/ns#"
   xmlns:rdf="http://www.w3.org/1999/02/22-rdf-syntax-ns#"
   xmlns:svg="http://www.w3.org/2000/svg"
   xmlns="http://www.w3.org/2000/svg"
   xmlns:sodipodi="http://sodipodi.sourceforge.net/DTD/sodipodi-0.dtd"
   xmlns:inkscape="http://www.inkscape.org/namespaces/inkscape"
   version="1.1"
   id="svg10"
   width="256"
   height="64"
   viewBox="0 0 256 64"
   sodipodi:docname="LOGO.svg"
   inkscape:version="0.92.1 r15371">
  <metadata
     id="metadata16">
    <rdf:RDF>
      <cc:Work
         rdf:about="">
        <dc:format>image/svg+xml</dc:format>
        <dc:type
           rdf:resource="http://purl.org/dc/dcmitype/StillImage" />
        <dc:title></dc:title>
      </cc:Work>
    </rdf:RDF>
  </metadata>
  <defs
     id="defs14" />
  <sodipodi:namedview
     pagecolor="#ffffff"
     bordercolor="#666666"
     borderopacity="1"
     objecttolerance="10"
     gridtolerance="10"
     guidetolerance="10"
     inkscape:pageopacity="0"
     inkscape:pageshadow="2"
     inkscape:window-width="1366"
     inkscape:window-height="706"
     id="namedview12"
     showgrid="false"
     inkscape:zoom="5.6568543"
     inkscape:cx="79.148465"
     inkscape:cy="28.249455"
     inkscape:window-x="-8"
     inkscape:window-y="-8"
     inkscape:window-maximized="1"
     inkscape:current-layer="svg10" />
  <g
     id="g366"
     transform="matrix(0.1,0,0,0.1,1.7500023,1.9160094)">
    <g
       id="layer101"
       style="fill:#ff2222;stroke:none">
      <path
         id="path28"
         d="m 190,606 c 0,-20 40,-86 52,-86 9,0 5,23 -14,73 -11,28 -38,38 -38,13 z"
         inkscape:connector-curvature="0" />
      <path
         id="path30"
         d="m 429,593 c -46,-117 -65,-137 -76,-82 -3,18 -14,34 -24,36 -9,3 -20,15 -24,26 -6,21 -7,20 -20,-8 -7,-16 -11,-33 -8,-38 2,-4 -8,-12 -22,-17 -34,-13 -45,-13 -45,1 0,15 -59,89 -71,89 -20,0 -7,-37 26,-72 39,-44 31,-50 -14,-12 -30,25 -61,27 -61,5 0,-6 12,-18 28,-28 15,-10 38,-28 52,-40 14,-13 28,-23 32,-23 5,0 8,-7 8,-15 0,-11 -11,-15 -35,-15 -22,0 -38,-6 -41,-15 -4,-10 -14,-13 -30,-9 -13,3 -24,2 -24,-3 0,-15 23,-33 43,-33 15,0 18,-6 15,-32 -3,-29 -8,-34 -60,-51 -33,-11 -58,-26 -58,-33 0,-8 6,-14 14,-14 21,0 90,31 98,44 4,6 8,7 8,1 -1,-15 -23,-40 -47,-54 -24,-12 -31,-41 -11,-41 7,0 39,19 71,41 42,30 62,38 70,30 7,-7 7,-18 -2,-37 -8,-17 -8,-31 -2,-37 13,-13 29,-1 46,36 l 14,32 -6,-30 c -4,-16 -17,-38 -30,-48 -24,-19 -31,-47 -13,-47 6,0 21,11 34,23 21,21 26,22 47,11 13,-7 31,-13 40,-14 16,0 35,-34 41,-75 2,-11 10,-20 18,-20 19,0 18,31 -3,103 -14,47 -14,54 -1,59 8,3 23,-2 33,-11 23,-20 41,-21 41,0 0,12 5,11 20,-7 l 19,-24 1,23 c 0,13 -5,33 -11,44 -10,18 -8,25 10,39 21,17 24,17 67,-2 54,-23 74,-24 74,-4 0,13 -62,37 -97,38 -7,0 -13,5 -13,10 0,5 20,7 46,4 57,-6 84,1 84,22 0,29 30,61 56,61 39,0 38,-24 0,-75 -30,-38 -36,-55 -36,-94 0,-68 18,-81 108,-81 62,0 70,2 68,17 -2,10 -7,37 -11,61 -8,48 -20,54 -30,15 -9,-37 -23,-53 -47,-53 -35,0 -31,28 11,81 47,59 53,101 20,143 -19,24 -26,26 -101,26 h -81 l 6,-45 c 7,-51 9,-50 -90,-39 -59,8 -67,22 -27,48 14,10 23,23 21,29 -2,7 3,18 12,25 13,10 9,12 -28,10 -41,-2 -46,0 -56,26 -7,15 -17,31 -24,35 -9,6 -8,18 3,52 20,55 20,59 1,59 -9,0 -20,-12 -26,-27 z M 405,360 c 5,0 18,8 29,18 11,9 6,-1 -12,-23 -35,-44 -41,-80 -14,-90 18,-6 72,-50 72,-59 0,-3 -20,8 -44,25 -27,20 -61,33 -90,36 -41,5 -47,3 -55,-18 -9,-21 -10,-19 -10,17 -1,23 -4,54 -7,70 -5,26 -1,31 33,50 l 38,21 26,-24 c 14,-13 29,-23 34,-23 z"
         inkscape:connector-curvature="0" />
      <path
         id="path32"
         d="m 492,580 c -9,-16 -20,-30 -24,-30 -5,0 -8,-9 -8,-20 0,-11 4,-20 8,-20 15,0 73,80 67,90 -11,18 -25,11 -43,-20 z"
         inkscape:connector-curvature="0" />
      <path
         id="path34"
         d="m 512,517 c -18,-18 -29,-36 -26,-40 8,-8 94,50 94,63 0,21 -38,8 -68,-23 z"
         inkscape:connector-curvature="0" />
      <path
         id="path36"
         d="m 871,391 c -18,-42 -4,-96 34,-137 26,-27 40,-34 72,-34 50,0 63,14 63,67 0,81 -46,133 -118,133 -34,0 -41,-4 -51,-29 z m 92,-48 c 28,-66 30,-83 12,-83 -16,0 -37,39 -50,93 -11,42 19,34 38,-10 z"
         inkscape:connector-curvature="0" />
      <path
         id="path38"
         d="m 1050,397 c 0,-12 11,-62 24,-110 15,-55 22,-101 19,-123 l -6,-34 h 42 c 34,0 41,3 41,20 0,17 -25,117 -45,181 -4,13 -2,19 8,19 9,0 14,7 13,15 -4,29 -35,55 -66,55 -24,0 -30,-4 -30,-23 z"
         inkscape:connector-curvature="0" />
      <path
         id="path40"
         d="m 1163,405 c -3,-9 2,-41 10,-73 9,-31 13,-69 10,-84 -5,-27 -4,-28 36,-28 44,0 51,12 32,62 -20,54 -22,78 -7,72 18,-7 14,29 -5,52 -16,19 -68,18 -76,-1 z"
         inkscape:connector-curvature="0" />
      <path
         id="path42"
         d="m 1276,404 c -10,-26 -7,-63 9,-102 24,-56 53,-82 93,-82 h 34 l -6,-45 -7,-45 h 40 c 50,0 50,0 15,123 -17,60 -22,93 -15,95 17,6 13,37 -7,55 -21,20 -72,23 -72,5 0,-9 -3,-9 -12,0 -17,17 -65,15 -72,-4 z m 87,-71 c 22,-44 30,-73 18,-73 -11,0 -33,38 -45,78 -10,32 11,28 27,-5 z"
         inkscape:connector-curvature="0" />
      <path
         id="path44"
         d="m 1466,404 c -16,-42 6,-118 46,-161 18,-19 32,-23 79,-23 57,0 58,0 53,28 -3,15 -10,43 -16,62 -8,25 -8,35 1,38 17,6 13,37 -7,55 -21,20 -72,23 -72,5 0,-9 -3,-9 -12,0 -17,17 -65,15 -72,-4 z m 87,-71 c 22,-44 30,-73 18,-73 -11,0 -33,38 -45,78 -10,32 11,28 27,-5 z"
         inkscape:connector-curvature="0" />
      <path
         id="path46"
         d="m 1650,407 c 0,-8 6,-35 14,-61 8,-26 12,-62 9,-80 -4,-28 -2,-34 18,-39 38,-11 49,-8 49,11 1,16 1,16 11,0 12,-22 48,-24 55,-3 12,29 -5,65 -30,65 -19,0 -28,10 -45,49 -11,27 -21,54 -21,60 0,6 -13,11 -30,11 -18,0 -30,-5 -30,-13 z"
         inkscape:connector-curvature="0" />
      <path
         id="path48"
         d="m 1803,405 c -3,-9 2,-41 10,-73 9,-31 13,-69 10,-84 -5,-27 -4,-28 36,-28 44,0 51,12 32,62 -20,54 -22,78 -7,72 18,-7 14,29 -5,52 -16,19 -68,18 -76,-1 z"
         inkscape:connector-curvature="0" />
      <path
         id="path50"
         d="m 1960,400 c -25,-25 -25,-52 0,-142 15,-53 17,-74 8,-79 -6,-4 -13,-15 -14,-23 -2,-13 10,-16 67,-16 61,0 69,2 69,19 0,10 -8,21 -18,23 -13,4 -25,28 -41,86 -13,44 -20,85 -17,91 13,21 64,12 84,-14 27,-34 60,-157 44,-163 -7,-2 -12,-12 -12,-23 0,-16 7,-19 45,-19 50,0 60,19 26,48 -11,10 -31,56 -45,104 -32,105 -54,128 -127,128 -36,0 -54,-5 -69,-20 z"
         inkscape:connector-curvature="0" />
      <path
         id="path52"
         d="m 2180,406 c 0,-8 9,-42 19,-75 10,-34 15,-61 10,-61 -5,0 -9,-11 -9,-25 0,-23 4,-25 46,-25 27,0 43,4 39,10 -3,6 -2,10 4,10 5,0 13,-4 16,-10 3,-5 20,-10 37,-10 h 31 l -5,65 c -3,36 -2,65 2,65 11,0 7,19 -8,48 -14,25 -69,31 -78,8 -3,-7 2,-40 10,-72 l 15,-59 -19,25 c -11,14 -28,46 -37,73 -15,41 -21,47 -45,47 -17,0 -28,-5 -28,-14 z"
         inkscape:connector-curvature="0" />
      <path
         id="path54"
         d="m 2393,405 c -3,-9 2,-41 10,-73 9,-31 13,-69 10,-84 -5,-27 -4,-28 36,-28 44,0 51,12 32,62 -20,54 -22,78 -7,72 18,-7 14,29 -5,52 -16,19 -68,18 -76,-1 z"
         inkscape:connector-curvature="0" />
      <path
         id="path56"
         d="m 20,295 c 0,-16 44,-20 88,-9 40,11 23,24 -33,24 -42,0 -55,-3 -55,-15 z"
         inkscape:connector-curvature="0" />
      <path
         id="path58"
         d="m 530,237 c 0,-13 67,-67 83,-67 4,0 7,8 7,18 0,16 -20,30 -82,60 -5,2 -8,-3 -8,-11 z"
         inkscape:connector-curvature="0" />
      <path
         id="path60"
         d="m 1214,186 c -12,-31 0,-51 31,-51 27,0 30,3 30,30 0,25 -4,30 -28,33 -17,2 -29,-2 -33,-12 z"
         inkscape:connector-curvature="0" />
      <path
         id="path62"
         d="m 1854,186 c -12,-31 0,-51 31,-51 27,0 30,3 30,30 0,25 -4,30 -28,33 -17,2 -29,-2 -33,-12 z"
         inkscape:connector-curvature="0" />
      <path
         id="path64"
         d="m 2444,186 c -12,-31 0,-51 31,-51 27,0 30,3 30,30 0,25 -4,30 -28,33 -17,2 -29,-2 -33,-12 z"
         inkscape:connector-curvature="0" />
      <path
         id="path66"
         d="M 289,103 C 272,57 267,23 278,16 c 14,-8 28,18 35,66 7,46 -9,60 -24,21 z"
         inkscape:connector-curvature="0" />
      <path
         id="path68"
         d="m 337,103 c -3,-5 -5,-30 -5,-56 -1,-41 1,-48 16,-45 13,3 17,14 17,43 1,22 -1,46 -3,53 -5,13 -18,16 -25,5 z"
         inkscape:connector-curvature="0" />
    </g>
    <g
       id="layer102"
       style="fill:#80cc11;stroke:none">
      <path
         id="path71"
         d="m 190,606 c 0,-20 40,-86 52,-86 9,0 5,23 -14,73 -11,28 -38,38 -38,13 z"
         inkscape:connector-curvature="0" />
      <path
         id="path73"
         d="m 429,593 c -46,-117 -65,-137 -76,-82 -3,18 -14,34 -24,36 -9,3 -20,15 -24,26 -6,21 -7,20 -20,-8 -7,-16 -11,-33 -8,-38 2,-4 -8,-12 -22,-17 -34,-13 -45,-13 -45,1 0,15 -59,89 -71,89 -20,0 -7,-37 26,-72 39,-44 31,-50 -14,-12 -30,25 -61,27 -61,5 0,-6 12,-18 28,-28 15,-10 38,-28 52,-40 14,-13 28,-23 32,-23 5,0 8,-7 8,-15 0,-11 -11,-15 -35,-15 -22,0 -38,-6 -41,-15 -4,-10 -14,-13 -30,-9 -13,3 -24,2 -24,-3 0,-15 23,-33 43,-33 15,0 18,-6 15,-32 -3,-29 -8,-34 -60,-51 -33,-11 -58,-26 -58,-33 0,-8 6,-14 14,-14 21,0 90,31 98,44 4,6 8,7 8,1 -1,-15 -23,-40 -47,-54 -24,-12 -31,-41 -11,-41 7,0 39,19 71,41 42,30 62,38 70,30 7,-7 7,-18 -2,-37 -13,-29 -2,-52 18,-39 26,16 43,80 38,145 l -5,65 38,22 39,21 22,-24 c 27,-29 36,-30 63,-6 11,9 6,-1 -12,-23 -35,-44 -41,-80 -14,-90 26,-9 69,-49 76,-73 4,-11 13,-26 21,-32 12,-10 15,-9 15,9 0,12 -5,32 -11,43 -10,18 -8,25 10,39 21,17 24,17 67,-2 54,-23 74,-24 74,-4 0,13 -62,37 -97,38 -7,0 -13,5 -13,10 0,5 20,7 46,4 57,-6 84,1 84,22 0,29 30,61 56,61 39,0 38,-24 0,-75 -30,-38 -36,-55 -36,-94 0,-68 18,-81 108,-81 62,0 70,2 68,17 -2,10 -7,37 -11,61 -8,48 -20,54 -30,15 -9,-37 -23,-53 -47,-53 -35,0 -31,28 11,81 47,59 53,101 20,143 -19,24 -26,26 -101,26 h -81 l 6,-45 c 7,-51 9,-50 -90,-39 -59,8 -67,22 -27,48 14,10 23,23 21,29 -2,7 3,18 12,25 13,10 9,12 -28,10 -41,-2 -46,0 -56,26 -7,15 -17,31 -24,35 -9,6 -8,18 3,52 20,55 20,59 1,59 -9,0 -20,-12 -26,-27 z"
         inkscape:connector-curvature="0" />
      <path
         id="path75"
         d="m 492,580 c -9,-16 -20,-30 -24,-30 -5,0 -8,-9 -8,-20 0,-11 4,-20 8,-20 15,0 73,80 67,90 -11,18 -25,11 -43,-20 z"
         inkscape:connector-curvature="0" />
      <path
         id="path77"
         d="m 512,517 c -18,-18 -29,-36 -26,-40 8,-8 94,50 94,63 0,21 -38,8 -68,-23 z"
         inkscape:connector-curvature="0" />
      <path
         id="path79"
         d="m 871,391 c -18,-42 -4,-96 34,-137 26,-27 40,-34 72,-34 50,0 63,14 63,67 0,81 -46,133 -118,133 -34,0 -41,-4 -51,-29 z m 92,-48 c 28,-66 30,-83 12,-83 -16,0 -37,39 -50,93 -11,42 19,34 38,-10 z"
         inkscape:connector-curvature="0" />
      <path
         id="path81"
         d="m 1050,397 c 0,-12 11,-62 24,-110 15,-55 22,-101 19,-123 l -6,-34 h 42 c 34,0 41,3 41,20 0,17 -25,117 -45,181 -4,13 -2,19 8,19 9,0 14,7 13,15 -4,29 -35,55 -66,55 -24,0 -30,-4 -30,-23 z"
         inkscape:connector-curvature="0" />
      <path
         id="path83"
         d="m 1163,405 c -3,-9 2,-41 10,-73 9,-31 13,-69 10,-84 -5,-27 -4,-28 36,-28 44,0 51,12 32,62 -20,54 -22,78 -7,72 18,-7 14,29 -5,52 -16,19 -68,18 -76,-1 z"
         inkscape:connector-curvature="0" />
      <path
         id="path85"
         d="m 1276,404 c -10,-26 -7,-63 9,-102 24,-56 53,-82 93,-82 h 34 l -6,-45 -7,-45 h 40 c 50,0 50,0 15,123 -17,60 -22,93 -15,95 17,6 13,37 -7,55 -21,20 -72,23 -72,5 0,-9 -3,-9 -12,0 -17,17 -65,15 -72,-4 z m 87,-71 c 22,-44 30,-73 18,-73 -11,0 -33,38 -45,78 -10,32 11,28 27,-5 z"
         inkscape:connector-curvature="0" />
      <path
         id="path87"
         d="m 1466,404 c -16,-42 6,-118 46,-161 18,-19 32,-23 79,-23 57,0 58,0 53,28 -3,15 -10,43 -16,62 -8,25 -8,35 1,38 17,6 13,37 -7,55 -21,20 -72,23 -72,5 0,-9 -3,-9 -12,0 -17,17 -65,15 -72,-4 z m 87,-71 c 22,-44 30,-73 18,-73 -11,0 -33,38 -45,78 -10,32 11,28 27,-5 z"
         inkscape:connector-curvature="0" />
      <path
         id="path89"
         d="m 1650,407 c 0,-8 6,-35 14,-61 8,-26 12,-62 9,-80 -4,-28 -2,-34 18,-39 38,-11 49,-8 49,11 1,16 1,16 11,0 12,-22 48,-24 55,-3 12,29 -5,65 -30,65 -19,0 -28,10 -45,49 -11,27 -21,54 -21,60 0,6 -13,11 -30,11 -18,0 -30,-5 -30,-13 z"
         inkscape:connector-curvature="0" />
      <path
         id="path91"
         d="m 1803,405 c -3,-9 2,-41 10,-73 9,-31 13,-69 10,-84 -5,-27 -4,-28 36,-28 44,0 51,12 32,62 -20,54 -22,78 -7,72 18,-7 14,29 -5,52 -16,19 -68,18 -76,-1 z"
         inkscape:connector-curvature="0" />
      <path
         id="path93"
         d="m 1960,400 c -25,-25 -25,-52 0,-142 15,-53 17,-74 8,-79 -6,-4 -13,-15 -14,-23 -2,-13 10,-16 67,-16 61,0 69,2 69,19 0,10 -8,21 -18,23 -13,4 -25,28 -41,86 -13,44 -20,85 -17,91 13,21 64,12 84,-14 27,-34 60,-157 44,-163 -7,-2 -12,-12 -12,-23 0,-16 7,-19 45,-19 50,0 60,19 26,48 -11,10 -31,56 -45,104 -32,105 -54,128 -127,128 -36,0 -54,-5 -69,-20 z"
         inkscape:connector-curvature="0" />
      <path
         id="path95"
         d="m 2180,406 c 0,-8 9,-42 19,-75 10,-34 15,-61 10,-61 -5,0 -9,-11 -9,-25 0,-23 4,-25 46,-25 27,0 43,4 39,10 -3,6 -2,10 4,10 5,0 13,-4 16,-10 3,-5 20,-10 37,-10 h 31 l -5,65 c -3,36 -2,65 2,65 11,0 7,19 -8,48 -14,25 -69,31 -78,8 -3,-7 2,-40 10,-72 l 15,-59 -19,25 c -11,14 -28,46 -37,73 -15,41 -21,47 -45,47 -17,0 -28,-5 -28,-14 z"
         inkscape:connector-curvature="0" />
      <path
         id="path97"
         d="m 2393,405 c -3,-9 2,-41 10,-73 9,-31 13,-69 10,-84 -5,-27 -4,-28 36,-28 44,0 51,12 32,62 -20,54 -22,78 -7,72 18,-7 14,29 -5,52 -16,19 -68,18 -76,-1 z"
         inkscape:connector-curvature="0" />
      <path
         id="path99"
         d="m 20,295 c 0,-16 44,-20 88,-9 40,11 23,24 -33,24 -42,0 -55,-3 -55,-15 z"
         inkscape:connector-curvature="0" />
      <path
         id="path101"
         d="m 530,237 c 0,-13 67,-67 83,-67 4,0 7,8 7,18 0,16 -20,30 -82,60 -5,2 -8,-3 -8,-11 z"
         inkscape:connector-curvature="0" />
      <path
         id="path103"
         d="m 1214,186 c -12,-31 0,-51 31,-51 27,0 30,3 30,30 0,25 -4,30 -28,33 -17,2 -29,-2 -33,-12 z"
         inkscape:connector-curvature="0" />
      <path
         id="path105"
         d="m 1854,186 c -12,-31 0,-51 31,-51 27,0 30,3 30,30 0,25 -4,30 -28,33 -17,2 -29,-2 -33,-12 z"
         inkscape:connector-curvature="0" />
      <path
         id="path107"
         d="m 2444,186 c -12,-31 0,-51 31,-51 27,0 30,3 30,30 0,25 -4,30 -28,33 -17,2 -29,-2 -33,-12 z"
         inkscape:connector-curvature="0" />
    </g>
    <g
       id="layer103"
       style="fill:#0099dd;stroke:none">
      <path
         id="path110"
         d="m 190,606 c 0,-20 40,-86 52,-86 9,0 5,23 -14,73 -11,28 -38,38 -38,13 z"
         inkscape:connector-curvature="0" />
      <path
         id="path112"
         d="m 429,593 c -46,-117 -65,-137 -76,-82 -3,18 -14,34 -24,36 -9,3 -20,15 -24,26 -6,21 -7,20 -20,-8 -7,-16 -11,-33 -8,-38 2,-4 -8,-12 -22,-17 -34,-13 -45,-13 -45,1 0,15 -59,89 -71,89 -20,0 -7,-37 26,-72 39,-44 31,-50 -14,-12 -30,25 -61,27 -61,5 0,-6 12,-18 28,-28 15,-10 38,-28 52,-40 14,-13 28,-23 32,-23 5,0 8,-7 8,-15 0,-10 -10,-15 -34,-15 -37,0 -55,-15 -38,-32 5,-5 35,-10 65,-10 41,0 67,6 100,25 l 46,25 22,-24 c 27,-29 36,-30 63,-6 11,9 6,-1 -12,-23 -35,-44 -41,-80 -14,-90 26,-9 69,-49 76,-73 4,-11 13,-26 21,-32 12,-10 15,-9 15,9 0,12 -5,32 -11,43 -10,18 -8,25 10,39 21,17 24,17 67,-2 54,-23 74,-24 74,-4 0,13 -62,37 -97,38 -7,0 -13,5 -13,10 0,5 20,7 46,4 57,-6 84,1 84,22 0,32 30,62 58,59 39,-4 38,-28 -3,-80 -28,-37 -35,-56 -35,-91 0,-63 19,-77 108,-77 h 71 l -5,27 c -13,85 -25,94 -49,37 -11,-28 -19,-35 -37,-32 -36,5 -33,34 11,89 47,60 54,104 20,135 -17,15 -37,19 -101,20 l -80,1 6,-38 c 7,-44 7,-44 -91,-33 -59,8 -67,22 -27,48 14,10 23,23 21,29 -2,7 3,18 12,25 13,10 9,12 -28,10 -41,-2 -46,0 -56,26 -7,15 -17,31 -24,35 -9,6 -8,18 3,52 20,55 20,59 1,59 -9,0 -20,-12 -26,-27 z"
         inkscape:connector-curvature="0" />
      <path
         id="path114"
         d="m 492,580 c -9,-16 -20,-30 -24,-30 -5,0 -8,-9 -8,-20 0,-11 4,-20 8,-20 15,0 73,80 67,90 -11,18 -25,11 -43,-20 z"
         inkscape:connector-curvature="0" />
      <path
         id="path116"
         d="m 512,517 c -18,-18 -29,-36 -26,-40 8,-8 94,50 94,63 0,21 -38,8 -68,-23 z"
         inkscape:connector-curvature="0" />
      <path
         id="path118"
         d="m 875,393 c -32,-31 3,-135 55,-163 26,-14 83,-13 98,2 17,17 15,83 -3,118 -28,54 -115,79 -150,43 z m 88,-50 c 21,-48 25,-85 10,-90 -10,-4 -53,91 -53,117 0,25 29,6 43,-27 z"
         inkscape:connector-curvature="0" />
      <path
         id="path120"
         d="m 1054,396 c -3,-8 6,-56 20,-108 15,-55 23,-106 20,-125 -5,-33 -5,-33 35,-33 50,0 51,9 16,129 -29,100 -28,91 -11,91 20,0 14,30 -9,46 -25,18 -64,18 -71,0 z"
         inkscape:connector-curvature="0" />
      <path
         id="path122"
         d="m 1164,396 c -3,-8 2,-37 10,-66 8,-28 13,-64 9,-81 -5,-28 -5,-29 36,-29 44,0 51,12 32,62 -19,53 -22,78 -7,72 21,-8 14,26 -9,42 -24,18 -64,18 -71,0 z"
         inkscape:connector-curvature="0" />
      <path
         id="path124"
         d="m 1281,397 c -15,-15 -14,-51 4,-95 24,-56 53,-82 93,-82 h 35 l -6,-45 -7,-45 h 40 c 48,0 49,1 14,123 -17,60 -22,93 -15,95 16,5 14,28 -4,46 -18,17 -137,20 -154,3 z m 91,-83 c 14,-33 17,-49 9,-57 -10,-10 -27,18 -45,81 -13,41 15,23 36,-24 z"
         inkscape:connector-curvature="0" />
      <path
         id="path126"
         d="m 1471,397 c -24,-24 -1,-109 41,-154 18,-19 32,-23 79,-23 57,0 58,0 53,28 -3,15 -10,43 -16,62 -8,25 -8,35 1,38 16,5 14,28 -4,46 -18,17 -137,20 -154,3 z m 91,-83 c 14,-33 17,-49 9,-57 -10,-10 -27,18 -45,81 -13,41 15,23 36,-24 z"
         inkscape:connector-curvature="0" />
      <path
         id="path128"
         d="m 1650,402 c 0,-5 7,-31 15,-57 8,-27 12,-63 9,-81 -4,-26 -1,-32 18,-38 37,-9 48,-7 48,11 0,15 1,15 13,-1 21,-28 52,-17 52,19 0,22 -5,31 -20,33 -31,6 -43,20 -60,73 -15,44 -20,49 -46,49 -16,0 -29,-4 -29,-8 z"
         inkscape:connector-curvature="0" />
      <path
         id="path130"
         d="m 1804,396 c -3,-8 2,-37 10,-66 8,-28 13,-64 9,-81 -5,-28 -5,-29 36,-29 44,0 51,12 32,62 -19,53 -22,78 -7,72 21,-8 14,26 -9,42 -24,18 -64,18 -71,0 z"
         inkscape:connector-curvature="0" />
      <path
         id="path132"
         d="m 1970,397 c -33,-17 -36,-47 -10,-138 16,-59 18,-76 8,-84 -32,-25 -18,-35 52,-35 56,0 70,3 70,15 0,8 -7,15 -15,15 -17,0 -70,162 -61,186 9,24 66,13 87,-16 27,-36 58,-162 42,-167 -7,-3 -13,-11 -13,-19 0,-10 13,-14 45,-14 32,0 45,4 45,14 0,8 -7,16 -15,19 -8,4 -26,45 -41,93 -33,110 -63,144 -126,144 -24,0 -54,-6 -68,-13 z"
         inkscape:connector-curvature="0" />
      <path
         id="path134"
         d="m 2180,401 c 0,-5 8,-36 19,-69 11,-36 15,-65 10,-74 -18,-28 -9,-38 37,-38 27,0 43,4 39,10 -3,6 -2,10 4,10 5,0 13,-4 16,-10 3,-5 20,-10 37,-10 h 31 l -6,65 c -4,36 -2,65 2,65 15,0 5,32 -14,46 -22,16 -61,18 -70,4 -3,-5 1,-35 9,-67 l 15,-58 -23,29 c -13,15 -29,46 -35,67 -10,34 -16,39 -41,39 -17,0 -30,-4 -30,-9 z"
         inkscape:connector-curvature="0" />
      <path
         id="path136"
         d="m 2394,396 c -3,-8 2,-37 10,-66 8,-28 13,-64 9,-81 -5,-28 -5,-29 36,-29 44,0 51,12 32,62 -19,53 -22,78 -7,72 21,-8 14,26 -9,42 -24,18 -64,18 -71,0 z"
         inkscape:connector-curvature="0" />
      <path
         id="path138"
         d="m 530,237 c 0,-13 67,-67 83,-67 4,0 7,8 7,18 0,16 -20,30 -82,60 -5,2 -8,-3 -8,-11 z"
         inkscape:connector-curvature="0" />
      <path
         id="path140"
         d="m 1214,176 c -11,-28 4,-48 33,-44 22,2 28,8 28,28 0,20 -6,26 -28,28 -18,2 -29,-2 -33,-12 z"
         inkscape:connector-curvature="0" />
      <path
         id="path142"
         d="m 1854,176 c -11,-28 4,-48 33,-44 22,2 28,8 28,28 0,20 -6,26 -28,28 -18,2 -29,-2 -33,-12 z"
         inkscape:connector-curvature="0" />
      <path
         id="path144"
         d="m 2444,176 c -11,-28 4,-48 33,-44 22,2 28,8 28,28 0,20 -6,26 -28,28 -18,2 -29,-2 -33,-12 z"
         inkscape:connector-curvature="0" />
    </g>
    <g
       id="layer104"
       style="fill:#ff9900;stroke:none">
      <path
         id="path147"
         d="m 429,593 c -28,-72 -50,-113 -59,-113 -5,0 -13,15 -18,32 -4,18 -16,34 -25,36 -39,8 -10,-108 40,-160 31,-33 39,-34 67,-10 11,9 6,-1 -12,-23 -35,-44 -41,-80 -14,-90 26,-9 69,-49 76,-73 4,-11 13,-26 21,-32 12,-10 15,-9 15,9 0,12 -5,32 -11,43 -10,18 -8,25 10,39 21,17 24,17 67,-2 54,-23 74,-24 74,-4 0,13 -62,37 -97,38 -7,0 -13,5 -13,10 0,5 20,7 46,4 57,-6 84,1 84,22 0,32 30,62 58,59 39,-4 38,-28 -3,-80 -28,-37 -35,-56 -35,-91 0,-63 19,-77 108,-77 h 71 l -5,27 c -13,85 -25,94 -49,37 -11,-28 -19,-35 -37,-32 -36,5 -33,34 11,89 47,60 54,104 20,135 -17,15 -37,19 -101,20 l -80,1 6,-38 c 7,-44 7,-44 -91,-33 -59,8 -67,22 -27,48 14,10 23,23 21,29 -2,7 3,18 12,25 13,10 9,12 -28,10 -41,-2 -46,0 -56,26 -7,15 -17,31 -24,35 -9,6 -8,18 3,52 20,55 20,59 1,59 -9,0 -20,-12 -26,-27 z"
         inkscape:connector-curvature="0" />
      <path
         id="path149"
         d="m 492,580 c -9,-16 -20,-30 -24,-30 -5,0 -8,-9 -8,-20 0,-11 4,-20 8,-20 15,0 73,80 67,90 -11,18 -25,11 -43,-20 z"
         inkscape:connector-curvature="0" />
      <path
         id="path151"
         d="m 512,517 c -18,-18 -29,-36 -26,-40 8,-8 94,50 94,63 0,21 -38,8 -68,-23 z"
         inkscape:connector-curvature="0" />
      <path
         id="path153"
         d="m 875,393 c -32,-31 3,-135 55,-163 26,-14 83,-13 98,2 17,17 15,83 -3,118 -28,54 -115,79 -150,43 z m 88,-50 c 21,-48 25,-85 10,-90 -10,-4 -53,91 -53,117 0,25 29,6 43,-27 z"
         inkscape:connector-curvature="0" />
      <path
         id="path155"
         d="m 1054,396 c -3,-8 6,-56 20,-108 15,-55 23,-106 20,-125 -5,-33 -5,-33 35,-33 50,0 51,9 16,129 -29,100 -28,91 -11,91 20,0 14,30 -9,46 -25,18 -64,18 -71,0 z"
         inkscape:connector-curvature="0" />
      <path
         id="path157"
         d="m 1164,396 c -3,-8 2,-37 10,-66 8,-28 13,-64 9,-81 -5,-28 -5,-29 36,-29 44,0 51,12 32,62 -19,53 -22,78 -7,72 21,-8 14,26 -9,42 -24,18 -64,18 -71,0 z"
         inkscape:connector-curvature="0" />
      <path
         id="path159"
         d="m 1281,397 c -15,-15 -14,-51 4,-95 24,-56 53,-82 93,-82 h 35 l -6,-45 -7,-45 h 40 c 48,0 49,1 14,123 -17,60 -22,93 -15,95 16,5 14,28 -4,46 -18,17 -137,20 -154,3 z m 91,-83 c 14,-33 17,-49 9,-57 -10,-10 -27,18 -45,81 -13,41 15,23 36,-24 z"
         inkscape:connector-curvature="0" />
      <path
         id="path161"
         d="m 1471,397 c -24,-24 -1,-109 41,-154 18,-19 32,-23 79,-23 57,0 58,0 53,28 -3,15 -10,43 -16,62 -8,25 -8,35 1,38 16,5 14,28 -4,46 -18,17 -137,20 -154,3 z m 91,-83 c 14,-33 17,-49 9,-57 -10,-10 -27,18 -45,81 -13,41 15,23 36,-24 z"
         inkscape:connector-curvature="0" />
      <path
         id="path163"
         d="m 1650,402 c 0,-5 7,-31 15,-57 8,-27 12,-63 9,-81 -4,-26 -1,-32 18,-38 37,-9 48,-7 48,11 0,15 1,15 13,-1 21,-28 52,-17 52,19 0,22 -5,31 -20,33 -31,6 -43,20 -60,73 -15,44 -20,49 -46,49 -16,0 -29,-4 -29,-8 z"
         inkscape:connector-curvature="0" />
      <path
         id="path165"
         d="m 1804,396 c -3,-8 2,-37 10,-66 8,-28 13,-64 9,-81 -5,-28 -5,-29 36,-29 44,0 51,12 32,62 -19,53 -22,78 -7,72 21,-8 14,26 -9,42 -24,18 -64,18 -71,0 z"
         inkscape:connector-curvature="0" />
      <path
         id="path167"
         d="m 1970,397 c -33,-17 -36,-47 -10,-138 16,-59 18,-76 8,-84 -32,-25 -18,-35 52,-35 56,0 70,3 70,15 0,8 -7,15 -15,15 -17,0 -70,162 -61,186 9,24 66,13 87,-16 27,-36 58,-162 42,-167 -7,-3 -13,-11 -13,-19 0,-10 13,-14 45,-14 32,0 45,4 45,14 0,8 -7,16 -15,19 -8,4 -26,45 -41,93 -33,110 -63,144 -126,144 -24,0 -54,-6 -68,-13 z"
         inkscape:connector-curvature="0" />
      <path
         id="path169"
         d="m 2180,401 c 0,-5 8,-36 19,-69 11,-36 15,-65 10,-74 -18,-28 -9,-38 37,-38 27,0 43,4 39,10 -3,6 -2,10 4,10 5,0 13,-4 16,-10 3,-5 20,-10 37,-10 h 31 l -6,65 c -4,36 -2,65 2,65 15,0 5,32 -14,46 -22,16 -61,18 -70,4 -3,-5 1,-35 9,-67 l 15,-58 -23,29 c -13,15 -29,46 -35,67 -10,34 -16,39 -41,39 -17,0 -30,-4 -30,-9 z"
         inkscape:connector-curvature="0" />
      <path
         id="path171"
         d="m 2394,396 c -3,-8 2,-37 10,-66 8,-28 13,-64 9,-81 -5,-28 -5,-29 36,-29 44,0 51,12 32,62 -19,53 -22,78 -7,72 21,-8 14,26 -9,42 -24,18 -64,18 -71,0 z"
         inkscape:connector-curvature="0" />
      <path
         id="path173"
         d="m 530,237 c 0,-13 67,-67 83,-67 4,0 7,8 7,18 0,16 -20,30 -82,60 -5,2 -8,-3 -8,-11 z"
         inkscape:connector-curvature="0" />
      <path
         id="path175"
         d="m 1214,176 c -11,-28 4,-48 33,-44 22,2 28,8 28,28 0,20 -6,26 -28,28 -18,2 -29,-2 -33,-12 z"
         inkscape:connector-curvature="0" />
      <path
         id="path177"
         d="m 1854,176 c -11,-28 4,-48 33,-44 22,2 28,8 28,28 0,20 -6,26 -28,28 -18,2 -29,-2 -33,-12 z"
         inkscape:connector-curvature="0" />
      <path
         id="path179"
         d="m 2444,176 c -11,-28 4,-48 33,-44 22,2 28,8 28,28 0,20 -6,26 -28,28 -18,2 -29,-2 -33,-12 z"
         inkscape:connector-curvature="0" />
    </g>
    <g
       id="layer105"
       style="fill:#bb33aa;stroke:none">
      <path
         id="path182"
         d="m 429,593 c -28,-72 -50,-113 -59,-113 -5,0 -13,15 -18,32 -4,18 -16,34 -25,36 -39,8 -10,-108 40,-160 15,-16 30,-28 34,-28 5,0 27,13 51,29 24,16 58,32 75,36 51,10 52,27 2,24 -39,-3 -44,-1 -54,25 -7,15 -17,31 -24,35 -9,6 -8,18 3,52 20,55 20,59 1,59 -9,0 -20,-12 -26,-27 z"
         inkscape:connector-curvature="0" />
      <path
         id="path184"
         d="m 492,580 c -9,-16 -20,-30 -24,-30 -5,0 -8,-9 -8,-20 0,-11 4,-20 8,-20 15,0 73,80 67,90 -11,18 -25,11 -43,-20 z"
         inkscape:connector-curvature="0" />
      <path
         id="path186"
         d="m 512,517 c -18,-18 -29,-36 -26,-40 8,-8 94,50 94,63 0,21 -38,8 -68,-23 z"
         inkscape:connector-curvature="0" />
      <path
         id="path188"
         d="m 640,391 c 0,-9 5,-33 11,-53 10,-39 29,-52 29,-20 0,33 30,63 58,60 39,-4 38,-28 -3,-80 -28,-37 -35,-56 -35,-91 0,-63 19,-77 108,-77 h 71 l -5,27 c -13,85 -25,94 -49,37 -11,-28 -19,-35 -37,-32 -36,5 -33,34 11,89 47,60 54,104 20,135 -29,26 -179,30 -179,5 z"
         inkscape:connector-curvature="0" />
      <path
         id="path190"
         d="m 875,393 c -32,-31 3,-135 55,-163 26,-14 83,-13 98,2 17,17 15,83 -3,118 -28,54 -115,79 -150,43 z m 88,-50 c 21,-48 25,-85 10,-90 -10,-4 -53,91 -53,117 0,25 29,6 43,-27 z"
         inkscape:connector-curvature="0" />
      <path
         id="path192"
         d="m 1054,396 c -3,-8 6,-56 20,-108 15,-55 23,-106 20,-125 -5,-33 -5,-33 35,-33 50,0 51,9 16,129 -29,100 -28,91 -11,91 20,0 14,30 -9,46 -25,18 -64,18 -71,0 z"
         inkscape:connector-curvature="0" />
      <path
         id="path194"
         d="m 1164,396 c -3,-8 2,-37 10,-66 8,-28 13,-64 9,-81 -5,-28 -5,-29 36,-29 44,0 51,12 32,62 -19,53 -22,78 -7,72 21,-8 14,26 -9,42 -24,18 -64,18 -71,0 z"
         inkscape:connector-curvature="0" />
      <path
         id="path196"
         d="m 1281,397 c -15,-15 -14,-51 4,-95 24,-56 53,-82 93,-82 h 35 l -6,-45 -7,-45 h 40 c 48,0 49,1 14,123 -17,60 -22,93 -15,95 16,5 14,28 -4,46 -18,17 -137,20 -154,3 z m 91,-83 c 14,-33 17,-49 9,-57 -10,-10 -27,18 -45,81 -13,41 15,23 36,-24 z"
         inkscape:connector-curvature="0" />
      <path
         id="path198"
         d="m 1471,397 c -24,-24 -1,-109 41,-154 18,-19 32,-23 79,-23 57,0 58,0 53,28 -3,15 -10,43 -16,62 -8,25 -8,35 1,38 16,5 14,28 -4,46 -18,17 -137,20 -154,3 z m 91,-83 c 14,-33 17,-49 9,-57 -10,-10 -27,18 -45,81 -13,41 15,23 36,-24 z"
         inkscape:connector-curvature="0" />
      <path
         id="path200"
         d="m 1650,402 c 0,-5 7,-31 15,-57 8,-27 12,-63 9,-81 -4,-26 -1,-32 18,-38 37,-9 48,-7 48,11 0,15 1,15 13,-1 21,-28 52,-17 52,19 0,22 -5,31 -20,33 -31,6 -43,20 -60,73 -15,44 -20,49 -46,49 -16,0 -29,-4 -29,-8 z"
         inkscape:connector-curvature="0" />
      <path
         id="path202"
         d="m 1804,396 c -3,-8 2,-37 10,-66 8,-28 13,-64 9,-81 -5,-28 -5,-29 36,-29 44,0 51,12 32,62 -19,53 -22,78 -7,72 21,-8 14,26 -9,42 -24,18 -64,18 -71,0 z"
         inkscape:connector-curvature="0" />
      <path
         id="path204"
         d="m 1970,397 c -33,-17 -36,-47 -10,-138 16,-59 18,-76 8,-84 -32,-25 -18,-35 52,-35 56,0 70,3 70,15 0,8 -7,15 -15,15 -17,0 -70,162 -61,186 9,24 66,13 87,-16 27,-36 58,-162 42,-167 -7,-3 -13,-11 -13,-19 0,-10 13,-14 45,-14 32,0 45,4 45,14 0,8 -7,16 -15,19 -8,4 -26,45 -41,93 -33,110 -63,144 -126,144 -24,0 -54,-6 -68,-13 z"
         inkscape:connector-curvature="0" />
      <path
         id="path206"
         d="m 2180,401 c 0,-5 8,-36 19,-69 11,-36 15,-65 10,-74 -18,-28 -9,-38 37,-38 27,0 43,4 39,10 -3,6 -2,10 4,10 5,0 13,-4 16,-10 3,-5 20,-10 37,-10 h 31 l -6,65 c -4,36 -2,65 2,65 15,0 5,32 -14,46 -22,16 -61,18 -70,4 -3,-5 1,-35 9,-67 l 15,-58 -23,29 c -13,15 -29,46 -35,67 -10,34 -16,39 -41,39 -17,0 -30,-4 -30,-9 z"
         inkscape:connector-curvature="0" />
      <path
         id="path208"
         d="m 2394,396 c -3,-8 2,-37 10,-66 8,-28 13,-64 9,-81 -5,-28 -5,-29 36,-29 44,0 51,12 32,62 -19,53 -22,78 -7,72 21,-8 14,26 -9,42 -24,18 -64,18 -71,0 z"
         inkscape:connector-curvature="0" />
      <path
         id="path210"
         d="m 1214,176 c -11,-28 4,-48 33,-44 22,2 28,8 28,28 0,20 -6,26 -28,28 -18,2 -29,-2 -33,-12 z"
         inkscape:connector-curvature="0" />
      <path
         id="path212"
         d="m 1854,176 c -11,-28 4,-48 33,-44 22,2 28,8 28,28 0,20 -6,26 -28,28 -18,2 -29,-2 -33,-12 z"
         inkscape:connector-curvature="0" />
      <path
         id="path214"
         d="m 2444,176 c -11,-28 4,-48 33,-44 22,2 28,8 28,28 0,20 -6,26 -28,28 -18,2 -29,-2 -33,-12 z"
         inkscape:connector-curvature="0" />
    </g>
    <g
       id="layer106"
       style="fill:#fcfcfc;stroke:none">
      <path
         id="path217"
         d="m 640,391 c 0,-9 5,-33 11,-53 10,-39 29,-52 29,-20 0,33 30,63 58,60 39,-4 38,-28 -3,-80 -28,-37 -35,-56 -35,-91 0,-63 19,-77 108,-77 h 71 l -5,27 c -13,85 -25,94 -49,37 -11,-28 -19,-35 -37,-32 -36,5 -33,34 11,89 47,60 54,104 20,135 -29,26 -179,30 -179,5 z"
         inkscape:connector-curvature="0" />
      <path
         id="path219"
         d="m 875,393 c -32,-31 3,-135 55,-163 26,-14 83,-13 98,2 17,17 15,83 -3,118 -28,54 -115,79 -150,43 z m 88,-50 c 21,-48 25,-85 10,-90 -10,-4 -53,91 -53,117 0,25 29,6 43,-27 z"
         inkscape:connector-curvature="0" />
      <path
         id="path221"
         d="m 1054,396 c -3,-8 6,-56 20,-108 15,-55 23,-106 20,-125 -5,-33 -5,-33 35,-33 50,0 51,9 16,129 -29,100 -28,91 -11,91 20,0 14,30 -9,46 -25,18 -64,18 -71,0 z"
         inkscape:connector-curvature="0" />
      <path
         id="path223"
         d="m 1164,396 c -3,-8 2,-37 10,-66 8,-28 13,-64 9,-81 -5,-28 -5,-29 36,-29 44,0 51,12 32,62 -19,53 -22,78 -7,72 21,-8 14,26 -9,42 -24,18 -64,18 -71,0 z"
         inkscape:connector-curvature="0" />
      <path
         id="path225"
         d="m 1281,397 c -15,-15 -14,-51 4,-95 24,-56 53,-82 93,-82 h 35 l -6,-45 -7,-45 h 40 c 48,0 49,1 14,123 -17,60 -22,93 -15,95 16,5 14,28 -4,46 -18,17 -137,20 -154,3 z m 91,-83 c 14,-33 17,-49 9,-57 -10,-10 -27,18 -45,81 -13,41 15,23 36,-24 z"
         inkscape:connector-curvature="0" />
      <path
         id="path227"
         d="m 1471,397 c -24,-24 -1,-109 41,-154 18,-19 32,-23 79,-23 57,0 58,0 53,28 -3,15 -10,43 -16,62 -8,25 -8,35 1,38 16,5 14,28 -4,46 -18,17 -137,20 -154,3 z m 91,-83 c 14,-33 17,-49 9,-57 -10,-10 -27,18 -45,81 -13,41 15,23 36,-24 z"
         inkscape:connector-curvature="0" />
      <path
         id="path229"
         d="m 1650,402 c 0,-5 7,-31 15,-57 8,-27 12,-63 9,-81 -4,-26 -1,-32 18,-38 37,-9 48,-7 48,11 0,15 1,15 13,-1 21,-28 52,-17 52,19 0,22 -5,31 -20,33 -31,6 -43,20 -60,73 -15,44 -20,49 -46,49 -16,0 -29,-4 -29,-8 z"
         inkscape:connector-curvature="0" />
      <path
         id="path231"
         d="m 1804,396 c -3,-8 2,-37 10,-66 8,-28 13,-64 9,-81 -5,-28 -5,-29 36,-29 44,0 51,12 32,62 -19,53 -22,78 -7,72 21,-8 14,26 -9,42 -24,18 -64,18 -71,0 z"
         inkscape:connector-curvature="0" />
      <path
         id="path233"
         d="m 1970,397 c -33,-17 -36,-47 -10,-138 16,-59 18,-76 8,-84 -32,-25 -18,-35 52,-35 56,0 70,3 70,15 0,8 -7,15 -15,15 -17,0 -70,162 -61,186 9,24 66,13 87,-16 27,-36 58,-162 42,-167 -7,-3 -13,-11 -13,-19 0,-10 13,-14 45,-14 32,0 45,4 45,14 0,8 -7,16 -15,19 -8,4 -26,45 -41,93 -33,110 -63,144 -126,144 -24,0 -54,-6 -68,-13 z"
         inkscape:connector-curvature="0" />
      <path
         id="path235"
         d="m 2180,401 c 0,-5 8,-36 19,-69 11,-36 15,-65 10,-74 -18,-28 -9,-38 37,-38 27,0 43,4 39,10 -3,6 -2,10 4,10 5,0 13,-4 16,-10 3,-5 20,-10 37,-10 h 31 l -6,65 c -4,36 -2,65 2,65 15,0 5,32 -14,46 -22,16 -61,18 -70,4 -3,-5 1,-35 9,-67 l 15,-58 -23,29 c -13,15 -29,46 -35,67 -10,34 -16,39 -41,39 -17,0 -30,-4 -30,-9 z"
         inkscape:connector-curvature="0" />
      <path
         id="path237"
         d="m 2394,396 c -3,-8 2,-37 10,-66 8,-28 13,-64 9,-81 -5,-28 -5,-29 36,-29 44,0 51,12 32,62 -19,53 -22,78 -7,72 21,-8 14,26 -9,42 -24,18 -64,18 -71,0 z"
         inkscape:connector-curvature="0" />
      <path
         id="path239"
         d="m 1214,176 c -11,-28 4,-48 33,-44 22,2 28,8 28,28 0,20 -6,26 -28,28 -18,2 -29,-2 -33,-12 z"
         inkscape:connector-curvature="0" />
      <path
         id="path241"
         d="m 1854,176 c -11,-28 4,-48 33,-44 22,2 28,8 28,28 0,20 -6,26 -28,28 -18,2 -29,-2 -33,-12 z"
         inkscape:connector-curvature="0" />
      <path
         id="path243"
         d="m 2444,176 c -11,-28 4,-48 33,-44 22,2 28,8 28,28 0,20 -6,26 -28,28 -18,2 -29,-2 -33,-12 z"
         inkscape:connector-curvature="0" />
    </g>
  </g>
  <path
     style="fill:#008000;stroke-width:0.17677669"
     d="m 14.222109,39.468094 c -0.448174,-0.234429 -0.705371,-0.2448 -1.726854,-0.06964 -1.647339,0.282487 -2.419759,0.264348 -2.5441239,-0.05974 -0.1817593,-0.473657 0.1075029,-1.143154 0.7878689,-1.82352 0.839133,-0.839133 1.9595,-1.365627 3.238645,-1.521936 1.567021,-0.191486 1.658136,-0.316941 1.636752,-2.253602 -0.02262,-2.048305 -0.292923,-3.069908 -1.013219,-3.829395 -0.726387,-0.765909 -1.3037,-1.050695 -4.183492,-2.0637 -4.273123,-1.503128 -6.5407379,-2.785103 -6.5407379,-3.697744 0,-0.216048 0.1954989,-0.576477 0.4344421,-0.800952 0.3841613,-0.360901 0.5419042,-0.393882 1.3629496,-0.284966 2.1780897,0.288934 7.3996542,2.663013 8.9416422,4.065479 1.012671,0.921043 1.384476,0.899212 1.107928,-0.06506 -0.434372,-1.514565 -2.128043,-3.408662 -4.446687,-4.972897 -1.5542802,-1.04857 -2.182631,-1.785347 -2.3848316,-2.79635 -0.1356422,-0.678211 0.3021483,-1.256557 0.9511753,-1.256557 0.6896863,0 3.0515083,1.324068 6.7613033,3.790476 5.289019,3.516334 6.661987,4.071428 7.594511,3.070482 0.527777,-0.566502 0.457694,-1.548068 -0.256496,-3.592404 -0.706971,-2.023675 -0.745701,-2.533685 -0.271708,-3.577914 0.379918,-0.836978 0.454493,-0.863583 1.360048,-0.485218 0.618327,0.258353 2.151931,1.506301 2.032566,1.653969 -0.03261,0.04034 0.04134,0.135547 0.164337,0.211562 0.122996,0.07602 0.245749,0.244009 0.272789,0.373318 0.02704,0.129309 0.326818,1.030602 0.666176,2.002874 1.127218,3.229514 1.441982,6.623728 1.114752,12.020815 -0.07663,1.263954 -0.169545,2.802014 -0.206466,3.417909 -0.03692,0.615897 -0.112741,1.165425 -0.16849,1.221172 -0.05575,0.05575 -0.0026,0.22301 0.118078,0.371694 0.186882,0.230228 0.166985,0.250478 -0.134117,0.136491 -2.111456,-0.799331 -6.503096,-1.177644 -9.667572,-0.8328 -2.69976,0.2942 -3.618032,0.600013 -4.06221,1.352838 -0.197388,0.334548 -0.370917,0.59983 -0.38562,0.589517 -0.0147,-0.01031 -0.263706,-0.142707 -0.553339,-0.294208 z"
     id="path374"
     inkscape:connector-curvature="0" />
  <path
     style="fill:#008000;stroke-width:0.17677669"
     d="m 5.9438244,32.700369 c -1.4895965,-0.173194 -2.0668763,-0.516125 -2.0668763,-1.22782 0,-1.012126 1.1917325,-1.428975 4.065864,-1.422173 3.1634389,0.0075 6.7175139,0.90689 6.7175139,1.699952 0,0.866053 -4.8718533,1.397053 -8.7165016,0.950041 z"
     id="path376"
     inkscape:connector-curvature="0" />
  <path
     style="fill:#0000ff;stroke-width:0.17677669"
     d="m 14.824496,61.50103 c -0.623897,-1.165762 0.730555,-3.786549 3.733596,-7.224287 2.584292,-2.958374 2.828107,-3.992371 0.58599,-2.485129 -0.570135,0.383269 -1.281684,0.920228 -1.581218,1.193243 -2.353386,2.145028 -5.138134,3.097192 -6.325843,2.162939 -0.754017,-0.593109 -0.649939,-1.446556 0.286915,-2.352721 0.883462,-0.854523 1.684255,-1.523536 1.823636,-1.523536 0.290309,0 5.793281,-4.330394 7.076764,-5.56884 0.107548,-0.103775 0.584846,-0.384793 1.06066,-0.624484 1.049532,-0.528701 1.124868,-0.623004 1.124868,-1.408074 0,-0.73081 -0.110427,-0.927 -0.701693,-1.246665 -0.58831,-0.318066 -0.702748,-0.337721 -2.65165,-0.455425 -3.649636,-0.220418 -5.003685,-1.162708 -4.092627,-2.84808 0.237891,-0.440076 1.185798,-0.999227 1.433953,-0.84586 0.08765,0.05417 0.208584,0.01887 0.268734,-0.07846 0.06015,-0.09733 0.284408,-0.175712 0.498351,-0.174192 0.213943,0.0015 0.945833,-0.08734 1.626423,-0.197472 2.234826,-0.361628 8.927224,0.07893 8.927224,0.587671 0,0.09338 0.119324,0.123995 0.265165,0.06803 0.14584,-0.05596 0.265165,-0.02318 0.265165,0.07284 0,0.09603 0.218761,0.132831 0.486136,0.08178 0.267374,-0.05105 0.377593,-0.0429 0.244931,0.01811 -0.150156,0.06905 0.150124,0.287584 0.795495,0.578935 0.570184,0.257407 1.752645,0.842146 2.62769,1.29942 0.875045,0.457275 1.661646,0.826832 1.748003,0.821238 0.08636,-0.0056 0.208572,0.07326 0.271589,0.17522 0.06302,0.101964 0.561086,0.410613 1.106821,0.685887 l 0.992244,0.500499 -0.433766,0.69923 c -0.840093,1.354224 -1.970558,3.721632 -2.518393,5.273991 -1.61821,4.585406 -1.551684,7.777191 0.16853,8.085696 0.335234,0.06012 0.477064,0.119784 0.315181,0.132583 -0.502769,0.03975 -1.697233,1.578545 -2.052249,2.643849 -0.184599,0.553937 -0.453556,1.026477 -0.600473,1.054991 -0.614601,0.119287 -2.316671,-4.107891 -2.241189,-5.566102 0.03673,-0.70959 -0.02279,-0.862292 -0.478494,-1.227588 -0.802283,-0.643115 -4.122454,-1.828534 -5.116639,-1.826822 -0.580238,10e-4 -0.786308,0.236285 -1.030105,1.176146 -0.203683,0.785217 -1.822796,3.495079 -2.587489,4.330602 -0.149321,0.163152 -0.785319,0.921597 -1.41333,1.685431 -2.016565,2.452706 -3.400241,3.275851 -3.908906,2.3254 z"
     id="path378"
     inkscape:connector-curvature="0" />
  <path
     style="fill:#0000ff;stroke-width:0.17677669"
     d="m 21.019904,63.513325 c -0.536988,-0.680529 -0.372778,-1.660047 0.625855,-3.733224 1.46985,-3.051431 3.526232,-5.856911 4.293042,-5.856911 0.825243,0 0.654122,1.436708 -0.620166,5.206851 -0.896554,2.65257 -1.55772,3.829916 -2.508529,4.466967 -0.797895,0.534598 -1.321651,0.510115 -1.790202,-0.08368 z"
     id="path380"
     inkscape:connector-curvature="0" />
</svg>
