<!DOCTYPE svg PUBLIC "-//W3C//DTD SVG 20010904//EN" "http://www.w3.org/TR/2001/REC-SVG-20010904/DTD/svg10.dtd">
<svg version="1.0" xmlns="http://www.w3.org/2000/svg" width="256px" height="62px" viewBox="0 0 2560 620" preserveAspectRatio="xMidYMid meet">
<g id="layer101" fill="#616061" stroke="none">
 <path d="M220 606 c0 -20 40 -86 51 -86 9 0 4 34 -12 78 -9 24 -39 30 -39 8z"/>
 <path d="M455 588 c-9 -41 -44 -108 -56 -108 -5 0 -12 14 -16 31 -3 19 -14 34 -25 36 -10 3 -18 14 -18 24 0 11 -4 19 -9 19 -11 0 -21 -25 -21 -51 0 -12 -10 -23 -26 -29 -32 -13 -44 -13 -44 0 0 17 -54 89 -67 90 -24 0 -13 -35 22 -72 39 -44 31 -50 -14 -12 -29 24 -61 27 -61 6 0 -5 27 -30 60 -55 33 -26 60 -51 60 -57 0 -5 -16 -10 -35 -10 -22 0 -38 -6 -41 -15 -4 -10 -14 -13 -30 -9 -13 3 -24 2 -24 -3 0 -15 23 -33 43 -33 15 0 18 -6 15 -32 -3 -29 -8 -34 -60 -51 -54 -18 -80 -47 -43 -47 23 0 88 29 97 43 6 9 8 9 8 0 0 -7 -16 -25 -35 -40 -36 -29 -46 -53 -20 -53 8 0 38 18 67 40 69 52 78 49 66 -25 -5 -36 26 -22 46 20 14 31 17 55 14 105 l-5 66 38 21 38 21 22 -24 c27 -29 36 -30 63 -6 11 9 6 -1 -12 -23 -30 -37 -43 -85 -23 -85 4 0 25 -13 46 -30 21 -16 33 -30 27 -30 -6 0 -14 5 -17 10 -25 40 -165 68 -165 33 0 -32 -25 -88 -47 -106 -23 -18 -31 -47 -14 -47 4 0 20 9 35 21 23 18 29 19 63 7 43 -15 56 -30 63 -73 6 -37 35 -42 34 -5 0 14 -8 49 -17 78 -14 47 -14 54 -1 59 8 3 23 -2 33 -11 23 -20 41 -21 41 0 0 12 5 11 20 -7 l19 -24 1 23 c0 13 -5 33 -11 44 -10 18 -8 25 10 39 21 17 24 17 67 -2 54 -23 74 -24 74 -4 0 13 -69 41 -97 38 -7 0 -13 4 -13 9 0 6 23 8 53 6 41 -2 52 0 52 12 0 11 -19 17 -77 24 -83 10 -101 26 -52 48 17 8 24 18 21 30 -3 11 0 18 9 18 8 0 14 5 14 11 0 7 -15 10 -40 7 -35 -3 -41 -1 -51 24 -6 16 -18 32 -26 36 -12 7 -12 15 1 53 20 56 20 59 -3 59 -14 0 -22 -10 -26 -32z"/>
 <path d="M516 576 c-25 -34 -34 -66 -18 -66 11 0 72 76 72 89 0 22 -29 10 -54 -23z"/>
 <path d="M540 515 c-21 -22 -28 -35 -19 -35 18 0 89 48 89 60 0 22 -38 8 -70 -25z"/>
 <path d="M711 423 c4 -67 35 -89 56 -40 15 33 38 44 58 27 24 -20 18 -44 -25 -98 -44 -55 -52 -98 -22 -125 23 -21 163 -25 161 -4 -5 63 -36 81 -56 34 -10 -21 -18 -28 -35 -25 -38 5 -33 39 12 90 22 25 40 51 40 57 0 7 17 -6 38 -29 36 -37 43 -40 91 -40 45 0 53 3 62 24 17 37 3 91 -32 120 -23 20 -42 26 -78 26 -51 0 -71 -12 -72 -44 0 -15 -2 -17 -6 -6 -15 42 -34 50 -115 50 -68 0 -78 -2 -77 -17z m307 -43 c24 -35 26 -80 5 -87 -18 -6 -53 57 -53 95 0 42 16 39 48 -8z"/>
 <path d="M1100 427 c0 -6 14 -59 30 -117 35 -122 35 -120 14 -120 -8 0 -12 -4 -9 -10 3 -5 26 -10 50 -10 l44 0 -25 88 c-13 48 -27 97 -30 110 -5 16 -2 22 10 22 21 0 20 13 -2 33 -22 20 -82 23 -82 4z"/>
 <path d="M1210 435 c0 -3 8 -36 17 -72 12 -49 13 -68 5 -71 -28 -9 -8 -22 33 -22 25 0 45 4 45 8 0 5 -7 31 -15 58 -20 66 -2 82 24 22 23 -55 63 -88 106 -88 30 0 33 -3 40 -37 4 -24 3 -39 -4 -41 -27 -9 -7 -22 34 -22 25 0 45 1 45 3 0 1 -13 49 -30 107 -16 58 -30 109 -30 113 0 19 22 -8 37 -44 23 -59 55 -79 124 -79 33 0 59 4 59 8 0 5 -7 32 -16 61 -16 55 -14 67 9 58 18 -7 43 -100 28 -105 -6 -2 -11 -8 -11 -12 0 -5 54 -9 120 -9 66 0 120 3 120 8 0 4 -7 30 -15 56 -14 48 -12 71 6 60 5 -4 9 1 9 9 0 20 -31 36 -69 36 -36 0 -35 2 -16 -70 19 -70 20 -90 3 -68 -7 9 -24 18 -38 20 -19 2 -32 16 -54 61 -25 50 -32 57 -58 57 -19 0 -27 -4 -22 -11 5 -8 1 -8 -14 0 -11 6 -53 11 -92 11 -54 0 -72 -4 -77 -15 -5 -14 -7 -14 -22 -1 -19 17 -148 21 -168 5 -8 -7 -18 -7 -32 0 -20 11 -81 15 -81 6z m225 -108 c14 -59 -18 -45 -47 19 -10 25 -16 49 -12 55 9 15 51 -38 59 -74z m181 32 c17 -35 18 -72 2 -67 -18 5 -61 95 -53 108 9 14 31 -4 51 -41z"/>
 <path d="M2012 424 c-27 -19 -29 -60 -5 -150 17 -62 17 -64 -2 -79 -18 -13 -14 -14 53 -15 67 0 95 12 53 23 -13 3 -25 26 -40 75 -32 106 -26 142 25 142 33 0 58 -38 83 -130 21 -79 22 -82 4 -96 -16 -12 -11 -13 40 -14 31 0 57 4 57 10 0 6 -6 10 -14 10 -8 0 -17 8 -20 18 -2 9 -7 26 -10 37 -6 19 -2 20 86 17 l91 -2 -6 47 c-3 27 -9 56 -13 66 -3 10 -3 17 2 16 23 -4 26 3 9 21 -18 20 -85 29 -85 12 0 -5 7 -31 15 -58 18 -60 18 -59 1 -45 -8 6 -23 34 -35 61 -19 44 -25 50 -51 50 l-29 0 20 -67 c23 -83 23 -83 1 -83 -13 0 -21 13 -30 44 -6 24 -23 58 -38 75 -23 28 -31 31 -83 31 -35 0 -65 -6 -79 -16z"/>
 <path d="M2420 435 c0 -3 8 -36 17 -72 12 -49 13 -68 5 -71 -28 -9 -8 -22 33 -22 25 0 45 4 45 8 0 5 -7 31 -15 57 -14 48 -12 71 6 60 5 -4 9 1 9 9 0 8 -9 20 -19 26 -20 10 -81 14 -81 5z"/>
 <path d="M52 293 c2 -10 10 -17 18 -16 100 11 122 33 34 33 -48 0 -55 -2 -52 -17z"/>
 <path d="M560 237 c0 -13 67 -67 83 -67 4 0 7 8 7 18 0 16 -20 30 -82 60 -5 2 -8 -3 -8 -11z"/>
 <path d="M1260 215 c0 -10 11 -15 35 -15 24 0 35 5 35 15 0 10 -11 15 -35 15 -24 0 -35 -5 -35 -15z"/>
 <path d="M1900 215 c0 -10 11 -15 35 -15 24 0 35 5 35 15 0 10 -11 15 -35 15 -24 0 -35 -5 -35 -15z"/>
 <path d="M2470 215 c0 -10 11 -15 35 -15 24 0 35 5 35 15 0 10 -11 15 -35 15 -24 0 -35 -5 -35 -15z"/>
 <path d="M320 104 c-6 -16 -14 -42 -17 -58 -5 -24 -3 -27 13 -24 14 2 21 15 25 48 8 54 -6 75 -21 34z"/>
 <path d="M361 55 c0 -48 2 -55 19 -55 22 0 25 21 14 79 -11 53 -32 38 -33 -24z"/>
 </g>
<g id="layer102" fill="#ff2222" stroke="none">
 <path d="M220 606 c0 -20 40 -86 51 -86 9 0 4 34 -12 78 -9 24 -39 30 -39 8z"/>
 <path d="M455 588 c-9 -41 -44 -108 -56 -108 -5 0 -12 14 -16 31 -3 19 -14 34 -25 36 -10 3 -18 14 -18 24 0 11 -4 19 -9 19 -11 0 -21 -25 -21 -51 0 -12 -10 -23 -26 -29 -32 -13 -44 -13 -44 0 0 17 -54 89 -67 90 -24 0 -13 -35 22 -72 39 -44 31 -50 -14 -12 -29 24 -61 27 -61 6 0 -5 27 -30 60 -55 33 -26 60 -51 60 -57 0 -5 -16 -10 -35 -10 -22 0 -38 -6 -41 -15 -4 -10 -14 -13 -30 -9 -13 3 -24 2 -24 -3 0 -15 23 -33 43 -33 15 0 18 -6 15 -32 -3 -29 -8 -34 -60 -51 -54 -18 -80 -47 -43 -47 23 0 88 29 97 43 6 9 8 9 8 0 0 -7 -16 -25 -35 -40 -36 -29 -46 -53 -20 -53 8 0 38 18 67 40 69 52 78 49 66 -25 -5 -36 26 -22 46 20 14 31 17 55 14 105 l-5 66 38 21 38 21 22 -24 c27 -29 36 -30 63 -6 11 9 6 -1 -12 -23 -30 -37 -43 -85 -23 -85 4 0 25 -13 46 -30 21 -16 33 -30 27 -30 -6 0 -14 5 -17 10 -25 40 -165 68 -165 33 0 -32 -25 -88 -47 -106 -23 -18 -31 -47 -14 -47 4 0 20 9 35 21 23 18 29 19 63 7 43 -15 56 -30 63 -73 6 -37 35 -42 34 -5 0 14 -8 49 -17 78 -14 47 -14 54 -1 59 8 3 23 -2 33 -11 23 -20 41 -21 41 0 0 12 5 11 20 -7 l19 -24 1 23 c0 13 -5 33 -11 44 -10 18 -8 25 10 39 21 17 24 17 67 -2 54 -23 74 -24 74 -4 0 13 -69 41 -97 38 -7 0 -13 4 -13 9 0 6 23 8 53 6 41 -2 52 0 52 12 0 11 -19 17 -77 24 -83 10 -101 26 -52 48 17 8 24 18 21 30 -3 11 0 18 9 18 8 0 14 5 14 11 0 7 -15 10 -40 7 -35 -3 -41 -1 -51 24 -6 16 -18 32 -26 36 -12 7 -12 15 1 53 20 56 20 59 -3 59 -14 0 -22 -10 -26 -32z"/>
 <path d="M516 576 c-25 -34 -34 -66 -18 -66 11 0 72 76 72 89 0 22 -29 10 -54 -23z"/>
 <path d="M540 515 c-21 -22 -28 -35 -19 -35 18 0 89 48 89 60 0 22 -38 8 -70 -25z"/>
 <path d="M735 396 c0 -49 14 -55 32 -14 16 36 56 56 78 38 27 -22 18 -65 -25 -115 -46 -53 -50 -82 -17 -113 20 -19 34 -22 81 -20 l57 2 -7 31 c-8 37 -24 57 -24 29 0 -12 -9 -29 -20 -39 -17 -15 -24 -16 -45 -7 -36 16 -31 42 17 97 47 54 55 99 23 135 -15 16 -30 20 -84 20 l-66 0 0 -44z"/>
 <path d="M947 422 c-21 -23 -22 -54 -2 -92 9 -17 12 -30 8 -30 -5 0 1 -7 11 -15 11 -9 41 -15 68 -15 42 0 50 3 59 24 17 37 3 91 -32 120 -37 31 -88 34 -112 8z m90 -31 c23 -34 31 -91 14 -91 -5 0 -16 -3 -25 -6 -31 -12 -75 104 -49 130 14 13 38 0 60 -33z"/>
 <path d="M1126 432 c-2 -4 10 -58 27 -120 26 -95 28 -115 17 -122 -12 -7 -12 -10 2 -15 9 -4 25 -5 36 -3 20 3 19 7 -13 118 -38 129 -41 143 -20 116 8 -11 18 -17 22 -13 10 10 -28 47 -48 47 -10 0 -20 -3 -23 -8z"/>
 <path d="M1240 416 c0 -14 4 -35 9 -48 20 -56 22 -78 6 -78 -9 0 -13 -4 -10 -10 7 -12 65 -13 65 -2 0 5 -7 31 -15 57 -14 48 -12 71 6 60 5 -4 9 1 9 9 0 17 -29 36 -54 36 -10 0 -16 -9 -16 -24z"/>
 <path d="M1352 428 c-22 -22 -14 -75 18 -111 16 -19 26 -38 22 -42 -4 -4 14 -5 40 -3 44 5 47 4 53 -21 3 -14 8 -34 11 -43 4 -12 0 -18 -11 -18 -9 0 -13 -4 -10 -10 5 -8 65 -15 65 -7 0 1 -13 49 -30 107 -32 114 -34 121 -22 119 21 -4 23 3 7 21 -25 27 -55 26 -55 -2 l0 -21 -23 21 c-26 25 -47 28 -65 10z m77 -43 c34 -39 41 -79 15 -89 -23 -9 -34 1 -55 49 -18 40 -17 75 1 75 4 0 22 -16 39 -35z"/>
 <path d="M1534 415 c-9 -34 1 -68 31 -103 13 -16 22 -32 18 -36 -3 -3 21 -6 55 -6 34 0 62 4 62 9 0 5 -9 38 -20 73 -24 76 -24 73 -5 58 9 -7 19 -10 23 -6 9 10 -27 36 -49 36 -23 0 -31 -49 -13 -74 27 -39 6 -91 -28 -70 -17 11 -48 91 -42 108 7 18 20 21 29 6 3 -5 10 -10 16 -10 5 0 4 9 -3 20 -19 30 -66 27 -74 -5z"/>
 <path d="M1720 432 c0 -4 9 -37 19 -75 17 -57 17 -67 5 -67 -8 0 -13 -4 -9 -9 3 -6 35 -10 70 -10 58 0 65 2 65 20 0 23 -29 37 -40 19 -8 -13 -48 46 -69 103 -9 24 -41 39 -41 19z"/>
 <path d="M1880 416 c0 -14 4 -35 9 -48 20 -56 22 -78 6 -78 -9 0 -13 -4 -10 -10 7 -12 65 -13 65 -2 0 5 -7 31 -15 57 -14 48 -12 71 6 60 5 -4 9 1 9 9 0 17 -29 36 -54 36 -10 0 -16 -9 -16 -24z"/>
 <path d="M2032 417 c-27 -29 -27 -48 -2 -140 19 -67 19 -73 3 -84 -14 -11 -8 -13 40 -13 55 0 76 13 38 23 -13 3 -25 26 -40 77 -28 90 -25 121 12 138 56 27 87 -9 122 -140 14 -55 15 -70 5 -83 -11 -13 -7 -15 29 -15 22 0 41 5 41 10 0 6 -6 10 -14 10 -8 0 -17 8 -20 18 -38 133 -50 166 -72 192 -22 26 -33 30 -73 30 -37 0 -52 -5 -69 -23z"/>
 <path d="M2250 430 c0 -6 8 -38 17 -71 13 -49 14 -62 4 -69 -21 -13 0 -18 72 -19 l67 0 0 32 c-1 18 -7 50 -15 72 -13 37 -13 66 1 31 3 -9 10 -13 16 -10 13 9 -21 44 -44 44 -22 0 -23 -17 -3 -90 8 -30 12 -56 9 -59 -8 -9 -43 39 -70 97 -14 28 -32 52 -40 52 -8 0 -14 -5 -14 -10z"/>
 <path d="M2450 416 c0 -14 4 -35 9 -48 20 -56 22 -78 6 -78 -9 0 -13 -4 -10 -10 7 -12 65 -13 65 -2 0 5 -7 31 -15 57 -14 48 -12 71 6 60 5 -4 9 1 9 9 0 17 -29 36 -54 36 -10 0 -16 -9 -16 -24z"/>
 <path d="M52 293 c2 -10 10 -17 18 -16 100 11 122 33 34 33 -48 0 -55 -2 -52 -17z"/>
 <path d="M560 237 c0 -13 67 -67 83 -67 4 0 7 8 7 18 0 16 -20 30 -82 60 -5 2 -8 -3 -8 -11z"/>
 <path d="M1290 215 c0 -8 9 -15 20 -15 11 0 20 7 20 15 0 8 -9 15 -20 15 -11 0 -20 -7 -20 -15z"/>
 <path d="M1930 215 c0 -8 9 -15 20 -15 11 0 20 7 20 15 0 8 -9 15 -20 15 -11 0 -20 -7 -20 -15z"/>
 <path d="M2500 215 c0 -8 9 -15 20 -15 11 0 20 7 20 15 0 8 -9 15 -20 15 -11 0 -20 -7 -20 -15z"/>
 <path d="M320 104 c-6 -16 -14 -42 -17 -58 -5 -24 -3 -27 13 -24 14 2 21 15 25 48 8 54 -6 75 -21 34z"/>
 <path d="M361 55 c0 -48 2 -55 19 -55 22 0 25 21 14 79 -11 53 -32 38 -33 -24z"/>
 </g>
<g id="layer103" fill="#80cc11" stroke="none">
 <path d="M220 606 c0 -20 40 -86 51 -86 9 0 4 34 -12 78 -9 24 -39 30 -39 8z"/>
 <path d="M455 588 c-9 -41 -44 -108 -56 -108 -5 0 -12 14 -16 31 -3 19 -14 34 -25 36 -10 3 -18 14 -18 24 0 11 -4 19 -9 19 -11 0 -21 -25 -21 -51 0 -12 -10 -23 -26 -29 -32 -13 -44 -13 -44 0 0 17 -54 89 -67 90 -24 0 -13 -35 22 -72 39 -44 31 -50 -14 -12 -29 24 -61 27 -61 6 0 -5 27 -30 60 -55 33 -26 60 -51 60 -57 0 -5 -16 -10 -35 -10 -22 0 -38 -6 -41 -15 -4 -10 -14 -13 -30 -9 -13 3 -24 2 -24 -3 0 -15 23 -33 43 -33 15 0 18 -6 15 -32 -3 -29 -8 -34 -60 -51 -54 -18 -80 -47 -43 -47 23 0 88 29 97 43 6 9 8 9 8 0 0 -7 -16 -25 -35 -40 -36 -29 -46 -53 -20 -53 8 0 38 18 67 40 69 52 78 49 66 -25 -5 -36 26 -22 46 20 14 31 17 55 14 105 l-5 66 38 21 38 21 22 -24 c27 -29 36 -30 63 -6 11 9 6 -1 -12 -23 -30 -37 -43 -85 -23 -85 11 0 81 -56 76 -62 -2 -2 7 -17 20 -33 24 -29 24 -29 25 -7 0 13 -5 33 -11 44 -10 18 -8 25 10 39 21 17 24 17 67 -2 54 -23 74 -24 74 -4 0 13 -69 41 -97 38 -7 0 -13 4 -13 9 0 6 23 8 53 6 41 -2 52 0 52 12 0 11 -19 17 -77 24 -83 10 -101 26 -52 48 17 8 24 18 21 30 -3 11 0 18 9 18 8 0 14 5 14 11 0 7 -15 10 -40 7 -35 -3 -41 -1 -51 24 -6 16 -18 32 -26 36 -12 7 -12 15 1 53 20 56 20 59 -3 59 -14 0 -22 -10 -26 -32z"/>
 <path d="M516 576 c-25 -34 -34 -66 -18 -66 11 0 72 76 72 89 0 22 -29 10 -54 -23z"/>
 <path d="M540 515 c-21 -22 -28 -35 -19 -35 18 0 89 48 89 60 0 22 -38 8 -70 -25z"/>
 <path d="M735 396 c0 -49 14 -55 32 -14 16 36 56 56 78 38 27 -22 18 -65 -25 -115 -46 -53 -50 -82 -17 -113 20 -19 34 -22 81 -20 l57 2 -7 31 c-8 37 -24 57 -24 29 0 -12 -9 -29 -20 -39 -17 -15 -24 -16 -45 -7 -36 16 -31 42 17 97 47 54 55 99 23 135 -15 16 -30 20 -84 20 l-66 0 0 -44z"/>
 <path d="M947 422 c-21 -23 -22 -54 -2 -92 9 -17 12 -30 8 -30 -5 0 1 -7 11 -15 11 -9 41 -15 68 -15 42 0 50 3 59 24 17 37 3 91 -32 120 -37 31 -88 34 -112 8z m90 -31 c23 -34 31 -91 14 -91 -5 0 -16 -3 -25 -6 -31 -12 -75 104 -49 130 14 13 38 0 60 -33z"/>
 <path d="M1126 432 c-2 -4 10 -58 27 -120 26 -95 28 -115 17 -122 -12 -7 -12 -10 2 -15 9 -4 25 -5 36 -3 20 3 19 7 -13 118 -38 129 -41 143 -20 116 8 -11 18 -17 22 -13 10 10 -28 47 -48 47 -10 0 -20 -3 -23 -8z"/>
 <path d="M1240 416 c0 -14 4 -35 9 -48 20 -56 22 -78 6 -78 -9 0 -13 -4 -10 -10 7 -12 65 -13 65 -2 0 5 -7 31 -15 57 -14 48 -12 71 6 60 5 -4 9 1 9 9 0 17 -29 36 -54 36 -10 0 -16 -9 -16 -24z"/>
 <path d="M1352 428 c-22 -22 -14 -75 18 -111 16 -19 26 -38 22 -42 -4 -4 14 -5 40 -3 44 5 47 4 53 -21 3 -14 8 -34 11 -43 4 -12 0 -18 -11 -18 -9 0 -13 -4 -10 -10 5 -8 65 -15 65 -7 0 1 -13 49 -30 107 -32 114 -34 121 -22 119 21 -4 23 3 7 21 -25 27 -55 26 -55 -2 l0 -21 -23 21 c-26 25 -47 28 -65 10z m77 -43 c34 -39 41 -79 15 -89 -23 -9 -34 1 -55 49 -18 40 -17 75 1 75 4 0 22 -16 39 -35z"/>
 <path d="M1534 415 c-9 -34 1 -68 31 -103 13 -16 22 -32 18 -36 -3 -3 21 -6 55 -6 34 0 62 4 62 9 0 5 -9 38 -20 73 -24 76 -24 73 -5 58 9 -7 19 -10 23 -6 9 10 -27 36 -49 36 -23 0 -31 -49 -13 -74 27 -39 6 -91 -28 -70 -17 11 -48 91 -42 108 7 18 20 21 29 6 3 -5 10 -10 16 -10 5 0 4 9 -3 20 -19 30 -66 27 -74 -5z"/>
 <path d="M1720 432 c0 -4 9 -37 19 -75 17 -57 17 -67 5 -67 -8 0 -13 -4 -9 -9 3 -6 35 -10 70 -10 58 0 65 2 65 20 0 23 -29 37 -40 19 -8 -13 -48 46 -69 103 -9 24 -41 39 -41 19z"/>
 <path d="M1880 416 c0 -14 4 -35 9 -48 20 -56 22 -78 6 -78 -9 0 -13 -4 -10 -10 7 -12 65 -13 65 -2 0 5 -7 31 -15 57 -14 48 -12 71 6 60 5 -4 9 1 9 9 0 17 -29 36 -54 36 -10 0 -16 -9 -16 -24z"/>
 <path d="M2032 417 c-27 -29 -27 -48 -2 -140 19 -67 19 -73 3 -84 -14 -11 -8 -13 40 -13 55 0 76 13 38 23 -13 3 -25 26 -40 77 -28 90 -25 121 12 138 56 27 87 -9 122 -140 14 -55 15 -70 5 -83 -11 -13 -7 -15 29 -15 22 0 41 5 41 10 0 6 -6 10 -14 10 -8 0 -17 8 -20 18 -38 133 -50 166 -72 192 -22 26 -33 30 -73 30 -37 0 -52 -5 -69 -23z"/>
 <path d="M2250 430 c0 -6 8 -38 17 -71 13 -49 14 -62 4 -69 -21 -13 0 -18 72 -19 l67 0 0 32 c-1 18 -7 50 -15 72 -13 37 -13 66 1 31 3 -9 10 -13 16 -10 13 9 -21 44 -44 44 -22 0 -23 -17 -3 -90 8 -30 12 -56 9 -59 -8 -9 -43 39 -70 97 -14 28 -32 52 -40 52 -8 0 -14 -5 -14 -10z"/>
 <path d="M2450 416 c0 -14 4 -35 9 -48 20 -56 22 -78 6 -78 -9 0 -13 -4 -10 -10 7 -12 65 -13 65 -2 0 5 -7 31 -15 57 -14 48 -12 71 6 60 5 -4 9 1 9 9 0 17 -29 36 -54 36 -10 0 -16 -9 -16 -24z"/>
 <path d="M52 293 c2 -10 10 -17 18 -16 100 11 122 33 34 33 -48 0 -55 -2 -52 -17z"/>
 <path d="M560 237 c0 -13 67 -67 83 -67 4 0 7 8 7 18 0 16 -20 30 -82 60 -5 2 -8 -3 -8 -11z"/>
 <path d="M1290 215 c0 -8 9 -15 20 -15 11 0 20 7 20 15 0 8 -9 15 -20 15 -11 0 -20 -7 -20 -15z"/>
 <path d="M1930 215 c0 -8 9 -15 20 -15 11 0 20 7 20 15 0 8 -9 15 -20 15 -11 0 -20 -7 -20 -15z"/>
 <path d="M2500 215 c0 -8 9 -15 20 -15 11 0 20 7 20 15 0 8 -9 15 -20 15 -11 0 -20 -7 -20 -15z"/>
 </g>
<g id="layer104" fill="#0099dd" stroke="none">
 <path d="M220 606 c0 -20 40 -86 51 -86 9 0 4 34 -12 78 -9 24 -39 30 -39 8z"/>
 <path d="M455 588 c-9 -41 -44 -108 -56 -108 -5 0 -12 14 -16 31 -3 19 -14 34 -25 36 -10 3 -18 14 -18 24 0 11 -4 19 -9 19 -11 0 -21 -25 -21 -51 0 -12 -10 -23 -26 -29 -32 -13 -44 -13 -44 0 0 17 -54 89 -67 90 -24 0 -13 -35 22 -72 39 -44 31 -50 -14 -12 -29 24 -61 27 -61 6 0 -5 27 -30 60 -55 33 -26 60 -51 60 -57 0 -5 -15 -10 -34 -10 -37 0 -55 -15 -38 -32 5 -5 35 -10 65 -10 41 0 67 6 100 25 l46 25 22 -24 c27 -29 36 -30 63 -6 11 9 6 -1 -12 -23 -30 -37 -43 -85 -23 -85 11 0 81 -56 76 -62 -2 -2 7 -17 20 -33 24 -29 24 -29 25 -7 0 13 -5 33 -11 44 -10 18 -8 25 10 39 21 17 24 17 67 -2 54 -23 74 -24 74 -4 0 13 -69 41 -97 38 -7 0 -13 4 -13 9 0 6 23 8 53 6 41 -2 52 0 52 12 0 11 -19 17 -77 24 -83 10 -101 26 -52 48 17 8 24 18 21 30 -3 11 0 18 9 18 8 0 14 5 14 11 0 7 -15 10 -40 7 -35 -3 -41 -1 -51 24 -6 16 -18 32 -26 36 -12 7 -12 15 1 53 20 56 20 59 -3 59 -14 0 -22 -10 -26 -32z"/>
 <path d="M516 576 c-25 -34 -34 -66 -18 -66 11 0 72 76 72 89 0 22 -29 10 -54 -23z"/>
 <path d="M540 515 c-21 -22 -28 -35 -19 -35 18 0 89 48 89 60 0 22 -38 8 -70 -25z"/>
 <path d="M735 396 c0 -49 14 -55 32 -14 16 36 56 56 78 38 27 -22 18 -65 -25 -115 -46 -53 -50 -82 -17 -113 20 -19 34 -22 81 -20 l57 2 -7 31 c-8 37 -24 57 -24 29 0 -12 -9 -29 -20 -39 -17 -15 -24 -16 -45 -7 -36 16 -31 42 17 97 47 54 55 99 23 135 -15 16 -30 20 -84 20 l-66 0 0 -44z"/>
 <path d="M947 422 c-21 -23 -22 -54 -2 -92 9 -17 12 -30 8 -30 -5 0 1 -7 11 -15 11 -9 41 -15 68 -15 42 0 50 3 59 24 17 37 3 91 -32 120 -37 31 -88 34 -112 8z m90 -31 c23 -34 31 -91 14 -91 -5 0 -16 -3 -25 -6 -31 -12 -75 104 -49 130 14 13 38 0 60 -33z"/>
 <path d="M1126 432 c-2 -4 10 -58 27 -120 26 -95 28 -115 17 -122 -12 -7 -12 -10 2 -15 9 -4 25 -5 36 -3 20 3 19 7 -13 118 -38 129 -41 143 -20 116 8 -11 18 -17 22 -13 10 10 -28 47 -48 47 -10 0 -20 -3 -23 -8z"/>
 <path d="M1240 416 c0 -14 4 -35 9 -48 20 -56 22 -78 6 -78 -9 0 -13 -4 -10 -10 7 -12 65 -13 65 -2 0 5 -7 31 -15 57 -14 48 -12 71 6 60 5 -4 9 1 9 9 0 17 -29 36 -54 36 -10 0 -16 -9 -16 -24z"/>
 <path d="M1352 428 c-22 -22 -14 -75 18 -111 16 -19 26 -38 22 -42 -4 -4 14 -5 40 -3 44 5 47 4 53 -21 3 -14 8 -34 11 -43 4 -12 0 -18 -11 -18 -9 0 -13 -4 -10 -10 5 -8 65 -15 65 -7 0 1 -13 49 -30 107 -32 114 -34 121 -22 119 21 -4 23 3 7 21 -25 27 -55 26 -55 -2 l0 -21 -23 21 c-26 25 -47 28 -65 10z m77 -43 c34 -39 41 -79 15 -89 -23 -9 -34 1 -55 49 -18 40 -17 75 1 75 4 0 22 -16 39 -35z"/>
 <path d="M1534 415 c-9 -34 1 -68 31 -103 13 -16 22 -32 18 -36 -3 -3 21 -6 55 -6 34 0 62 4 62 9 0 5 -9 38 -20 73 -24 76 -24 73 -5 58 9 -7 19 -10 23 -6 9 10 -27 36 -49 36 -23 0 -31 -49 -13 -74 27 -39 6 -91 -28 -70 -17 11 -48 91 -42 108 7 18 20 21 29 6 3 -5 10 -10 16 -10 5 0 4 9 -3 20 -19 30 -66 27 -74 -5z"/>
 <path d="M1720 432 c0 -4 9 -37 19 -75 17 -57 17 -67 5 -67 -8 0 -13 -4 -9 -9 3 -6 35 -10 70 -10 58 0 65 2 65 20 0 23 -29 37 -40 19 -8 -13 -48 46 -69 103 -9 24 -41 39 -41 19z"/>
 <path d="M1880 416 c0 -14 4 -35 9 -48 20 -56 22 -78 6 -78 -9 0 -13 -4 -10 -10 7 -12 65 -13 65 -2 0 5 -7 31 -15 57 -14 48 -12 71 6 60 5 -4 9 1 9 9 0 17 -29 36 -54 36 -10 0 -16 -9 -16 -24z"/>
 <path d="M2032 417 c-27 -29 -27 -48 -2 -140 19 -67 19 -73 3 -84 -14 -11 -8 -13 40 -13 55 0 76 13 38 23 -13 3 -25 26 -40 77 -28 90 -25 121 12 138 56 27 87 -9 122 -140 14 -55 15 -70 5 -83 -11 -13 -7 -15 29 -15 22 0 41 5 41 10 0 6 -6 10 -14 10 -8 0 -17 8 -20 18 -38 133 -50 166 -72 192 -22 26 -33 30 -73 30 -37 0 -52 -5 -69 -23z"/>
 <path d="M2250 430 c0 -6 8 -38 17 -71 13 -49 14 -62 4 -69 -21 -13 0 -18 72 -19 l67 0 0 32 c-1 18 -7 50 -15 72 -13 37 -13 66 1 31 3 -9 10 -13 16 -10 13 9 -21 44 -44 44 -22 0 -23 -17 -3 -90 8 -30 12 -56 9 -59 -8 -9 -43 39 -70 97 -14 28 -32 52 -40 52 -8 0 -14 -5 -14 -10z"/>
 <path d="M2450 416 c0 -14 4 -35 9 -48 20 -56 22 -78 6 -78 -9 0 -13 -4 -10 -10 7 -12 65 -13 65 -2 0 5 -7 31 -15 57 -14 48 -12 71 6 60 5 -4 9 1 9 9 0 17 -29 36 -54 36 -10 0 -16 -9 -16 -24z"/>
 <path d="M560 237 c0 -13 67 -67 83 -67 4 0 7 8 7 18 0 16 -20 30 -82 60 -5 2 -8 -3 -8 -11z"/>
 <path d="M1290 215 c0 -8 9 -15 20 -15 11 0 20 7 20 15 0 8 -9 15 -20 15 -11 0 -20 -7 -20 -15z"/>
 <path d="M1930 215 c0 -8 9 -15 20 -15 11 0 20 7 20 15 0 8 -9 15 -20 15 -11 0 -20 -7 -20 -15z"/>
 <path d="M2500 215 c0 -8 9 -15 20 -15 11 0 20 7 20 15 0 8 -9 15 -20 15 -11 0 -20 -7 -20 -15z"/>
 </g>
<g id="layer105" fill="#ff9900" stroke="none">
 <path d="M455 588 c-9 -40 -44 -108 -56 -108 -5 0 -12 15 -17 32 -10 40 -42 52 -42 16 0 -44 21 -99 52 -133 34 -40 43 -42 72 -17 11 9 6 -1 -12 -23 -30 -37 -43 -85 -23 -85 11 0 81 -56 76 -62 -2 -2 7 -17 20 -33 24 -29 24 -29 25 -7 0 13 -5 33 -11 44 -10 18 -8 25 10 39 21 17 24 17 67 -2 54 -23 74 -24 74 -4 0 13 -69 41 -97 38 -7 0 -13 4 -13 9 0 6 23 8 53 6 41 -2 52 0 52 12 0 11 -19 17 -77 24 -83 10 -101 26 -52 48 17 8 24 18 21 30 -3 11 0 18 9 18 8 0 14 5 14 11 0 7 -15 10 -40 7 -35 -3 -41 -1 -51 24 -6 16 -18 32 -26 36 -12 7 -12 15 1 53 20 56 20 59 -3 59 -14 0 -22 -10 -26 -32z"/>
 <path d="M516 576 c-25 -34 -34 -66 -18 -66 11 0 72 76 72 89 0 22 -29 10 -54 -23z"/>
 <path d="M540 515 c-21 -22 -28 -35 -19 -35 18 0 89 48 89 60 0 22 -38 8 -70 -25z"/>
 <path d="M735 396 c0 -49 14 -55 32 -14 16 36 56 56 78 38 27 -22 18 -65 -25 -115 -46 -53 -50 -82 -17 -113 20 -19 34 -22 81 -20 l57 2 -7 31 c-8 37 -24 57 -24 29 0 -12 -9 -29 -20 -39 -17 -15 -24 -16 -45 -7 -36 16 -31 42 17 97 47 54 55 99 23 135 -15 16 -30 20 -84 20 l-66 0 0 -44z"/>
 <path d="M947 422 c-21 -23 -22 -54 -2 -92 9 -17 12 -30 8 -30 -5 0 1 -7 11 -15 11 -9 41 -15 68 -15 42 0 50 3 59 24 17 37 3 91 -32 120 -37 31 -88 34 -112 8z m90 -31 c23 -34 31 -91 14 -91 -5 0 -16 -3 -25 -6 -31 -12 -75 104 -49 130 14 13 38 0 60 -33z"/>
 <path d="M1126 432 c-2 -4 10 -58 27 -120 26 -95 28 -115 17 -122 -12 -7 -12 -10 2 -15 9 -4 25 -5 36 -3 20 3 19 7 -13 118 -38 129 -41 143 -20 116 8 -11 18 -17 22 -13 10 10 -28 47 -48 47 -10 0 -20 -3 -23 -8z"/>
 <path d="M1240 416 c0 -14 4 -35 9 -48 20 -56 22 -78 6 -78 -9 0 -13 -4 -10 -10 7 -12 65 -13 65 -2 0 5 -7 31 -15 57 -14 48 -12 71 6 60 5 -4 9 1 9 9 0 17 -29 36 -54 36 -10 0 -16 -9 -16 -24z"/>
 <path d="M1352 428 c-22 -22 -14 -75 18 -111 16 -19 26 -38 22 -42 -4 -4 14 -5 40 -3 44 5 47 4 53 -21 3 -14 8 -34 11 -43 4 -12 0 -18 -11 -18 -9 0 -13 -4 -10 -10 5 -8 65 -15 65 -7 0 1 -13 49 -30 107 -32 114 -34 121 -22 119 21 -4 23 3 7 21 -25 27 -55 26 -55 -2 l0 -21 -23 21 c-26 25 -47 28 -65 10z m77 -43 c34 -39 41 -79 15 -89 -23 -9 -34 1 -55 49 -18 40 -17 75 1 75 4 0 22 -16 39 -35z"/>
 <path d="M1534 415 c-9 -34 1 -68 31 -103 13 -16 22 -32 18 -36 -3 -3 21 -6 55 -6 34 0 62 4 62 9 0 5 -9 38 -20 73 -24 76 -24 73 -5 58 9 -7 19 -10 23 -6 9 10 -27 36 -49 36 -23 0 -31 -49 -13 -74 27 -39 6 -91 -28 -70 -17 11 -48 91 -42 108 7 18 20 21 29 6 3 -5 10 -10 16 -10 5 0 4 9 -3 20 -19 30 -66 27 -74 -5z"/>
 <path d="M1720 432 c0 -4 9 -37 19 -75 17 -57 17 -67 5 -67 -8 0 -13 -4 -9 -9 3 -6 35 -10 70 -10 58 0 65 2 65 20 0 23 -29 37 -40 19 -8 -13 -48 46 -69 103 -9 24 -41 39 -41 19z"/>
 <path d="M1880 416 c0 -14 4 -35 9 -48 20 -56 22 -78 6 -78 -9 0 -13 -4 -10 -10 7 -12 65 -13 65 -2 0 5 -7 31 -15 57 -14 48 -12 71 6 60 5 -4 9 1 9 9 0 17 -29 36 -54 36 -10 0 -16 -9 -16 -24z"/>
 <path d="M2032 417 c-27 -29 -27 -48 -2 -140 19 -67 19 -73 3 -84 -14 -11 -8 -13 40 -13 55 0 76 13 38 23 -13 3 -25 26 -40 77 -28 90 -25 121 12 138 56 27 87 -9 122 -140 14 -55 15 -70 5 -83 -11 -13 -7 -15 29 -15 22 0 41 5 41 10 0 6 -6 10 -14 10 -8 0 -17 8 -20 18 -38 133 -50 166 -72 192 -22 26 -33 30 -73 30 -37 0 -52 -5 -69 -23z"/>
 <path d="M2250 430 c0 -6 8 -38 17 -71 13 -49 14 -62 4 -69 -21 -13 0 -18 72 -19 l67 0 0 32 c-1 18 -7 50 -15 72 -13 37 -13 66 1 31 3 -9 10 -13 16 -10 13 9 -21 44 -44 44 -22 0 -23 -17 -3 -90 8 -30 12 -56 9 -59 -8 -9 -43 39 -70 97 -14 28 -32 52 -40 52 -8 0 -14 -5 -14 -10z"/>
 <path d="M2450 416 c0 -14 4 -35 9 -48 20 -56 22 -78 6 -78 -9 0 -13 -4 -10 -10 7 -12 65 -13 65 -2 0 5 -7 31 -15 57 -14 48 -12 71 6 60 5 -4 9 1 9 9 0 17 -29 36 -54 36 -10 0 -16 -9 -16 -24z"/>
 <path d="M560 237 c0 -13 67 -67 83 -67 4 0 7 8 7 18 0 16 -20 30 -82 60 -5 2 -8 -3 -8 -11z"/>
 <path d="M1290 215 c0 -8 9 -15 20 -15 11 0 20 7 20 15 0 8 -9 15 -20 15 -11 0 -20 -7 -20 -15z"/>
 <path d="M1930 215 c0 -8 9 -15 20 -15 11 0 20 7 20 15 0 8 -9 15 -20 15 -11 0 -20 -7 -20 -15z"/>
 <path d="M2500 215 c0 -8 9 -15 20 -15 11 0 20 7 20 15 0 8 -9 15 -20 15 -11 0 -20 -7 -20 -15z"/>
 </g>
<g id="layer106" fill="#bb33aa" stroke="none">
 <path d="M455 588 c-9 -40 -44 -108 -56 -108 -5 0 -12 15 -17 32 -10 40 -42 52 -42 16 0 -44 21 -99 52 -133 16 -19 34 -35 39 -35 4 0 27 13 51 29 24 16 60 32 81 36 50 10 48 28 -3 23 -35 -3 -41 -1 -51 24 -6 16 -18 32 -26 36 -12 7 -12 15 1 53 20 56 20 59 -3 59 -14 0 -22 -10 -26 -32z"/>
 <path d="M516 576 c-25 -34 -34 -66 -18 -66 11 0 72 76 72 89 0 22 -29 10 -54 -23z"/>
 <path d="M540 515 c-21 -22 -28 -35 -19 -35 18 0 89 48 89 60 0 22 -38 8 -70 -25z"/>
 <path d="M735 396 c0 -49 14 -55 32 -14 16 36 56 56 78 38 27 -22 18 -65 -25 -115 -46 -53 -50 -82 -17 -113 20 -19 34 -22 81 -20 l57 2 -7 31 c-8 37 -24 57 -24 29 0 -12 -9 -29 -20 -39 -17 -15 -24 -16 -45 -7 -36 16 -31 42 17 97 47 54 55 99 23 135 -15 16 -30 20 -84 20 l-66 0 0 -44z"/>
 <path d="M947 422 c-21 -23 -22 -54 -2 -92 9 -17 12 -30 8 -30 -5 0 1 -7 11 -15 11 -9 41 -15 68 -15 42 0 50 3 59 24 17 37 3 91 -32 120 -37 31 -88 34 -112 8z m90 -31 c23 -34 31 -91 14 -91 -5 0 -16 -3 -25 -6 -31 -12 -75 104 -49 130 14 13 38 0 60 -33z"/>
 <path d="M1126 432 c-2 -4 10 -58 27 -120 26 -95 28 -115 17 -122 -12 -7 -12 -10 2 -15 9 -4 25 -5 36 -3 20 3 19 7 -13 118 -38 129 -41 143 -20 116 8 -11 18 -17 22 -13 10 10 -28 47 -48 47 -10 0 -20 -3 -23 -8z"/>
 <path d="M1240 416 c0 -14 4 -35 9 -48 20 -56 22 -78 6 -78 -9 0 -13 -4 -10 -10 7 -12 65 -13 65 -2 0 5 -7 31 -15 57 -14 48 -12 71 6 60 5 -4 9 1 9 9 0 17 -29 36 -54 36 -10 0 -16 -9 -16 -24z"/>
 <path d="M1352 428 c-22 -22 -14 -75 18 -111 16 -19 26 -38 22 -42 -4 -4 14 -5 40 -3 44 5 47 4 53 -21 3 -14 8 -34 11 -43 4 -12 0 -18 -11 -18 -9 0 -13 -4 -10 -10 5 -8 65 -15 65 -7 0 1 -13 49 -30 107 -32 114 -34 121 -22 119 21 -4 23 3 7 21 -25 27 -55 26 -55 -2 l0 -21 -23 21 c-26 25 -47 28 -65 10z m77 -43 c34 -39 41 -79 15 -89 -23 -9 -34 1 -55 49 -18 40 -17 75 1 75 4 0 22 -16 39 -35z"/>
 <path d="M1534 415 c-9 -34 1 -68 31 -103 13 -16 22 -32 18 -36 -3 -3 21 -6 55 -6 34 0 62 4 62 9 0 5 -9 38 -20 73 -24 76 -24 73 -5 58 9 -7 19 -10 23 -6 9 10 -27 36 -49 36 -23 0 -31 -49 -13 -74 27 -39 6 -91 -28 -70 -17 11 -48 91 -42 108 7 18 20 21 29 6 3 -5 10 -10 16 -10 5 0 4 9 -3 20 -19 30 -66 27 -74 -5z"/>
 <path d="M1720 432 c0 -4 9 -37 19 -75 17 -57 17 -67 5 -67 -8 0 -13 -4 -9 -9 3 -6 35 -10 70 -10 58 0 65 2 65 20 0 23 -29 37 -40 19 -8 -13 -48 46 -69 103 -9 24 -41 39 -41 19z"/>
 <path d="M1880 416 c0 -14 4 -35 9 -48 20 -56 22 -78 6 -78 -9 0 -13 -4 -10 -10 7 -12 65 -13 65 -2 0 5 -7 31 -15 57 -14 48 -12 71 6 60 5 -4 9 1 9 9 0 17 -29 36 -54 36 -10 0 -16 -9 -16 -24z"/>
 <path d="M2032 417 c-27 -29 -27 -48 -2 -140 19 -67 19 -73 3 -84 -14 -11 -8 -13 40 -13 55 0 76 13 38 23 -13 3 -25 26 -40 77 -28 90 -25 121 12 138 56 27 87 -9 122 -140 14 -55 15 -70 5 -83 -11 -13 -7 -15 29 -15 22 0 41 5 41 10 0 6 -6 10 -14 10 -8 0 -17 8 -20 18 -38 133 -50 166 -72 192 -22 26 -33 30 -73 30 -37 0 -52 -5 -69 -23z"/>
 <path d="M2250 430 c0 -6 8 -38 17 -71 13 -49 14 -62 4 -69 -21 -13 0 -18 72 -19 l67 0 0 32 c-1 18 -7 50 -15 72 -13 37 -13 66 1 31 3 -9 10 -13 16 -10 13 9 -21 44 -44 44 -22 0 -23 -17 -3 -90 8 -30 12 -56 9 -59 -8 -9 -43 39 -70 97 -14 28 -32 52 -40 52 -8 0 -14 -5 -14 -10z"/>
 <path d="M2450 416 c0 -14 4 -35 9 -48 20 -56 22 -78 6 -78 -9 0 -13 -4 -10 -10 7 -12 65 -13 65 -2 0 5 -7 31 -15 57 -14 48 -12 71 6 60 5 -4 9 1 9 9 0 17 -29 36 -54 36 -10 0 -16 -9 -16 -24z"/>
 <path d="M1290 215 c0 -8 9 -15 20 -15 11 0 20 7 20 15 0 8 -9 15 -20 15 -11 0 -20 -7 -20 -15z"/>
 <path d="M1930 215 c0 -8 9 -15 20 -15 11 0 20 7 20 15 0 8 -9 15 -20 15 -11 0 -20 -7 -20 -15z"/>
 <path d="M2500 215 c0 -8 9 -15 20 -15 11 0 20 7 20 15 0 8 -9 15 -20 15 -11 0 -20 -7 -20 -15z"/>
 </g>
<g id="layer107" fill="#c1c0c1" stroke="none">
 <path d="M735 396 c0 -49 14 -55 32 -14 16 36 56 56 78 38 27 -22 18 -65 -25 -115 -46 -53 -50 -82 -17 -113 20 -19 34 -22 81 -20 l57 2 -7 31 c-8 37 -24 57 -24 29 0 -12 -9 -29 -20 -39 -17 -15 -24 -16 -45 -7 -36 16 -31 42 17 97 47 54 55 99 23 135 -15 16 -30 20 -84 20 l-66 0 0 -44z"/>
 <path d="M947 422 c-21 -23 -22 -54 -2 -92 9 -17 12 -30 8 -30 -5 0 1 -7 11 -15 11 -9 41 -15 68 -15 42 0 50 3 59 24 17 37 3 91 -32 120 -37 31 -88 34 -112 8z m90 -31 c23 -34 31 -91 14 -91 -5 0 -16 -3 -25 -6 -31 -12 -75 104 -49 130 14 13 38 0 60 -33z"/>
 <path d="M1126 432 c-2 -4 10 -58 27 -120 26 -95 28 -115 17 -122 -12 -7 -12 -10 2 -15 9 -4 25 -5 36 -3 20 3 19 7 -13 118 -38 129 -41 143 -20 116 8 -11 18 -17 22 -13 10 10 -28 47 -48 47 -10 0 -20 -3 -23 -8z"/>
 <path d="M1240 416 c0 -14 4 -35 9 -48 20 -56 22 -78 6 -78 -9 0 -13 -4 -10 -10 7 -12 65 -13 65 -2 0 5 -7 31 -15 57 -14 48 -12 71 6 60 5 -4 9 1 9 9 0 17 -29 36 -54 36 -10 0 -16 -9 -16 -24z"/>
 <path d="M1352 428 c-22 -22 -14 -75 18 -111 16 -19 26 -38 22 -42 -4 -4 14 -5 40 -3 44 5 47 4 53 -21 3 -14 8 -34 11 -43 4 -12 0 -18 -11 -18 -9 0 -13 -4 -10 -10 5 -8 65 -15 65 -7 0 1 -13 49 -30 107 -32 114 -34 121 -22 119 21 -4 23 3 7 21 -25 27 -55 26 -55 -2 l0 -21 -23 21 c-26 25 -47 28 -65 10z m77 -43 c34 -39 41 -79 15 -89 -23 -9 -34 1 -55 49 -18 40 -17 75 1 75 4 0 22 -16 39 -35z"/>
 <path d="M1534 415 c-9 -34 1 -68 31 -103 13 -16 22 -32 18 -36 -3 -3 21 -6 55 -6 34 0 62 4 62 9 0 5 -9 38 -20 73 -24 76 -24 73 -5 58 9 -7 19 -10 23 -6 9 10 -27 36 -49 36 -23 0 -31 -49 -13 -74 27 -39 6 -91 -28 -70 -17 11 -48 91 -42 108 7 18 20 21 29 6 3 -5 10 -10 16 -10 5 0 4 9 -3 20 -19 30 -66 27 -74 -5z"/>
 <path d="M1720 432 c0 -4 9 -37 19 -75 17 -57 17 -67 5 -67 -8 0 -13 -4 -9 -9 3 -6 35 -10 70 -10 58 0 65 2 65 20 0 23 -29 37 -40 19 -8 -13 -48 46 -69 103 -9 24 -41 39 -41 19z"/>
 <path d="M1880 416 c0 -14 4 -35 9 -48 20 -56 22 -78 6 -78 -9 0 -13 -4 -10 -10 7 -12 65 -13 65 -2 0 5 -7 31 -15 57 -14 48 -12 71 6 60 5 -4 9 1 9 9 0 17 -29 36 -54 36 -10 0 -16 -9 -16 -24z"/>
 <path d="M2032 417 c-27 -29 -27 -48 -2 -140 19 -67 19 -73 3 -84 -14 -11 -8 -13 40 -13 55 0 76 13 38 23 -13 3 -25 26 -40 77 -28 90 -25 121 12 138 56 27 87 -9 122 -140 14 -55 15 -70 5 -83 -11 -13 -7 -15 29 -15 22 0 41 5 41 10 0 6 -6 10 -14 10 -8 0 -17 8 -20 18 -38 133 -50 166 -72 192 -22 26 -33 30 -73 30 -37 0 -52 -5 -69 -23z"/>
 <path d="M2250 430 c0 -6 8 -38 17 -71 13 -49 14 -62 4 -69 -21 -13 0 -18 72 -19 l67 0 0 32 c-1 18 -7 50 -15 72 -13 37 -13 66 1 31 3 -9 10 -13 16 -10 13 9 -21 44 -44 44 -22 0 -23 -17 -3 -90 8 -30 12 -56 9 -59 -8 -9 -43 39 -70 97 -14 28 -32 52 -40 52 -8 0 -14 -5 -14 -10z"/>
 <path d="M2450 416 c0 -14 4 -35 9 -48 20 -56 22 -78 6 -78 -9 0 -13 -4 -10 -10 7 -12 65 -13 65 -2 0 5 -7 31 -15 57 -14 48 -12 71 6 60 5 -4 9 1 9 9 0 17 -29 36 -54 36 -10 0 -16 -9 -16 -24z"/>
 <path d="M1290 215 c0 -8 9 -15 20 -15 11 0 20 7 20 15 0 8 -9 15 -20 15 -11 0 -20 -7 -20 -15z"/>
 <path d="M1930 215 c0 -8 9 -15 20 -15 11 0 20 7 20 15 0 8 -9 15 -20 15 -11 0 -20 -7 -20 -15z"/>
 <path d="M2500 215 c0 -8 9 -15 20 -15 11 0 20 7 20 15 0 8 -9 15 -20 15 -11 0 -20 -7 -20 -15z"/>
 </g>
<g id="layer108" fill="#fafafa" stroke="none">
 <path d="M735 395 c0 -27 4 -42 13 -42 6 0 12 6 12 12 0 21 41 65 60 65 24 0 50 -26 50 -50 0 -10 -19 -42 -41 -70 -70 -88 -47 -142 58 -138 l54 2 -7 31 c-10 46 -18 53 -24 21 -7 -39 -31 -53 -64 -38 -37 16 -32 42 16 97 47 54 55 99 24 134 -15 17 -30 20 -85 19 l-66 -1 0 -42z"/>
 <path d="M950 420 c-11 -11 -20 -25 -20 -30 0 -20 27 -75 43 -89 9 -7 15 -16 13 -20 -3 -4 18 -8 45 -9 44 -2 51 1 60 22 39 86 -78 189 -141 126z m70 0 c22 -12 55 -93 46 -115 -3 -9 -10 -14 -15 -11 -5 4 -11 0 -14 -6 -11 -33 -67 51 -67 100 0 42 14 51 50 32z"/>
 <path d="M1130 424 c0 -12 30 -129 56 -216 4 -12 0 -18 -13 -19 -13 -1 -11 -3 7 -9 49 -16 50 -14 23 83 -14 50 -31 107 -38 125 -15 33 -3 45 14 15 5 -10 13 -15 17 -10 11 10 -26 47 -48 47 -10 0 -18 -7 -18 -16z"/>
 <path d="M1240 428 c0 -6 7 -38 17 -71 13 -46 14 -60 4 -67 -9 -5 -4 -10 14 -14 15 -4 30 -5 32 -2 3 2 -2 28 -10 57 -16 52 -14 75 4 64 5 -4 9 1 9 9 0 17 -29 36 -54 36 -9 0 -16 -5 -16 -12z"/>
 <path d="M1352 428 c-21 -21 -13 -69 15 -107 16 -20 27 -39 26 -42 -3 -9 61 -7 73 2 7 6 15 -4 22 -30 16 -52 15 -61 -5 -62 -10 0 -3 -5 16 -10 18 -6 35 -8 37 -6 2 2 -10 50 -26 108 -32 113 -34 120 -22 118 21 -4 23 3 7 21 -10 11 -27 20 -37 20 -16 0 -18 -6 -14 -37 3 -21 10 -53 17 -70 11 -26 11 -35 1 -45 -31 -31 -107 82 -82 122 7 12 12 12 22 2 20 -20 32 -13 13 8 -20 23 -45 26 -63 8z"/>
 <path d="M1534 416 c-7 -31 2 -63 32 -102 13 -17 21 -33 19 -36 -2 -2 12 -5 32 -5 34 -1 34 0 12 10 -43 21 -85 137 -49 137 24 0 61 -47 76 -96 9 -33 21 -54 30 -54 18 0 18 6 -6 82 -24 76 -24 73 -5 58 9 -7 19 -10 23 -6 10 10 -27 36 -51 36 -16 0 -18 -5 -14 -27 l5 -28 -23 28 c-31 35 -72 37 -81 3z"/>
 <path d="M1720 438 c0 -2 9 -32 20 -68 24 -79 24 -80 3 -81 -10 0 -3 -5 16 -10 37 -11 51 -5 33 13 -28 28 -9 34 20 7 38 -34 53 -37 55 -9 2 25 -14 35 -32 20 -11 -9 -18 -3 -39 32 -13 24 -29 55 -35 71 -6 15 -17 27 -26 27 -8 0 -15 -1 -15 -2z"/>
 <path d="M1880 428 c0 -6 7 -38 17 -71 13 -46 14 -60 4 -67 -9 -5 -4 -10 14 -14 15 -4 30 -5 32 -2 3 2 -2 28 -10 57 -16 52 -14 75 4 64 5 -4 9 1 9 9 0 17 -29 36 -54 36 -9 0 -16 -5 -16 -12z"/>
 <path d="M2052 430 c-41 -17 -46 -49 -23 -132 26 -90 26 -105 4 -111 -10 -3 8 -5 40 -6 55 -1 77 11 38 22 -13 3 -25 26 -40 75 -33 109 -28 132 30 147 43 11 67 -20 99 -125 26 -86 27 -96 12 -107 -13 -11 -9 -13 26 -13 23 0 42 5 42 10 0 6 -6 10 -14 10 -8 0 -17 8 -20 18 -38 133 -50 166 -72 192 -20 24 -33 30 -62 29 -21 0 -47 -4 -60 -9z"/>
 <path d="M2250 437 c0 -1 9 -34 20 -72 11 -38 20 -71 20 -72 0 -2 -8 -3 -17 -4 -10 0 -3 -5 15 -10 24 -7 38 -7 48 2 11 9 18 9 26 1 7 -7 20 -12 30 -12 22 0 24 46 3 105 -13 37 -13 66 1 31 3 -9 10 -13 16 -10 13 9 -21 44 -44 44 -22 0 -22 -5 -1 -80 9 -33 13 -63 9 -67 -10 -11 -43 32 -72 95 -14 28 -32 52 -40 52 -8 0 -14 -1 -14 -3z"/>
 <path d="M2450 428 c0 -6 7 -38 17 -71 13 -46 14 -60 4 -67 -9 -5 -4 -10 14 -14 15 -4 30 -5 32 -2 3 2 -2 28 -10 57 -16 52 -14 75 4 64 5 -4 9 1 9 9 0 17 -29 36 -54 36 -9 0 -16 -5 -16 -12z"/>
 <path d="M1290 215 c0 -8 9 -15 20 -15 11 0 20 7 20 15 0 8 -9 15 -20 15 -11 0 -20 -7 -20 -15z"/>
 <path d="M1930 215 c0 -8 9 -15 20 -15 11 0 20 7 20 15 0 8 -9 15 -20 15 -11 0 -20 -7 -20 -15z"/>
 <path d="M2500 215 c0 -8 9 -15 20 -15 11 0 20 7 20 15 0 8 -9 15 -20 15 -11 0 -20 -7 -20 -15z"/>
 </g>

</svg>